<?xml version="1.0" encoding="UTF-8"?>
<svg version="1.1" xmlns="http://www.w3.org/2000/svg" width="1511" height="2048">
<path d="M0 0 C2.93584542 0.34076777 3.9296623 0.92581571 6 3.109375 C6.66 3.98078125 7.32 4.8521875 8 5.75 C8.66 6.61109375 9.32 7.4721875 10 8.359375 C10.66 9.23078125 11.32 10.1021875 12 11 C12.680625 11.83015625 13.36125 12.6603125 14.0625 13.515625 C15.94256568 15.92635437 17.46632064 18.35911896 19 21 C20.12070149 22.75275588 21.24587153 24.50266091 22.375 26.25 C26.47753677 32.6894248 30.23027417 39.07980233 33.20117188 46.12158203 C33.99517101 47.98864479 34.81686043 49.84080647 35.6484375 51.69140625 C40.8212105 63.25442467 45.45334825 74.80186391 48.32421875 87.18359375 C48.81609334 89.23354506 49.3809712 91.26639042 49.98828125 93.28515625 C51.13715163 97.50359538 51.85049314 101.68185001 52.5 106 C52.67595703 107.12341797 52.67595703 107.12341797 52.85546875 108.26953125 C53.10706873 109.90087306 53.35058864 111.53347383 53.58764648 113.16699219 C53.88596742 115.21655771 54.19998363 117.26385924 54.52368164 119.30957031 C56.03921295 129.48401445 56.44023322 139.47607724 56.4375 149.75 C56.4385675 150.61117432 56.43963501 151.47234863 56.44073486 152.35961914 C56.36655685 194.31161869 45.67486557 234.35760197 29.3515625 272.8125 C28.40987093 275.03336797 27.48957296 277.26337743 26.5859375 279.5 C21.85130931 291.00052589 15.72542385 301.64128302 9.50024414 312.39038086 C8.10874745 314.81083783 6.74496172 317.24395117 5.39453125 319.6875 C3.09298203 323.84838545 0.73218036 327.96924173 -1.6875 332.0625 C-2.07744141 332.73732422 -2.46738281 333.41214844 -2.86914062 334.10742188 C-3.85635538 335.77303035 -4.92159688 337.39192933 -6 339 C-6.66 339 -7.32 339 -8 339 C-8.268125 339.9075 -8.53625 340.815 -8.8125 341.75 C-9.90131632 344.72991834 -10.86391101 346.68590359 -13 349 C-13.66 349 -14.32 349 -15 349 C-15.33 350.65 -15.66 352.3 -16 354 C-16.66 354 -17.32 354 -18 354 C-18.26296875 354.72832031 -18.5259375 355.45664062 -18.796875 356.20703125 C-22.78064287 365.45506379 -30.79772353 373.66035924 -36.98730469 381.54174805 C-39.61142602 384.88952413 -42.19079262 388.23722013 -44.61328125 391.734375 C-46.78945862 394.82446739 -49.28900831 397.35969368 -52 400 C-53.95951454 402.192956 -55.85315049 404.44029667 -57.75 406.6875 C-62.11636615 411.8248775 -66.55302891 416.88226544 -71.09375 421.8671875 C-72.771738 423.7446085 -74.36503833 425.65942291 -75.9375 427.625 C-76.618125 428.40875 -77.29875 429.1925 -78 430 C-78.66 430 -79.32 430 -80 430 C-80.268125 430.639375 -80.53625 431.27875 -80.8125 431.9375 C-82 434 -82 434 -85 435 C-85.68620031 436.32338632 -86.34786461 437.65949948 -87 439 C-90.25886462 443.31320318 -93.84743785 446.65176237 -97.95703125 450.14453125 C-100.0062605 452.00568592 -101.7736713 453.95208412 -103.5625 456.0625 C-106.69538276 459.7486671 -110.01406006 463.22351413 -114 466 C-114.66 466 -115.32 466 -116 466 C-116.268125 466.639375 -116.53625 467.27875 -116.8125 467.9375 C-118 470 -118 470 -121 471 C-121.33 471.66 -121.66 472.32 -122 473 C-122.33 473.66 -122.66 474.32 -123 475 C-123.99 475.33 -124.98 475.66 -126 476 C-126.33 476.99 -126.66 477.98 -127 479 C-128.4609375 480.47265625 -128.4609375 480.47265625 -130.375 482.0625 C-133.80617132 484.96579881 -137.13624182 487.94947029 -140.4375 491 C-144.5203316 494.73076546 -148.69742694 498.21480287 -153.125 501.52734375 C-155.86855415 503.68217691 -158.1247318 506.13408669 -160.5 508.6875 C-163 511 -163 511 -166 511 C-166.32484375 511.84304688 -166.32484375 511.84304688 -166.65625 512.703125 C-168.45069128 515.77036765 -170.73892214 517.52660572 -173.5 519.75 C-174.4796875 520.54921875 -175.459375 521.3484375 -176.46875 522.171875 C-179 524 -179 524 -181 524 C-181 524.66 -181 525.32 -181 526 C-181.61875 526.268125 -182.2375 526.53625 -182.875 526.8125 C-185.2995233 527.95556848 -185.2995233 527.95556848 -187 531 C-187.99 531.33 -188.98 531.66 -190 532 C-191.34673264 533.31979799 -192.67707834 534.65633567 -194 536 C-196.2469379 537.87006448 -198.56090438 539.65156846 -200.875 541.4375 C-205.9572923 545.37764274 -210.96398142 549.37267623 -215.828125 553.58203125 C-219.77777778 557 -219.77777778 557 -222 557 C-222.33 557.99 -222.66 558.98 -223 560 C-225.08203125 561.91015625 -225.08203125 561.91015625 -227.8125 564.0625 C-228.80121094 564.85269531 -229.78992188 565.64289062 -230.80859375 566.45703125 C-231.33050293 566.87162598 -231.85241211 567.2862207 -232.39013672 567.71337891 C-235.07755246 569.86119221 -237.7277415 572.05302052 -240.375 574.25 C-241.33148437 575.03890625 -242.28796875 575.8278125 -243.2734375 576.640625 C-245.98313456 578.98540583 -248.49771644 581.43638597 -251 584 C-258.58928571 591.72321429 -258.58928571 591.72321429 -262.5625 595 C-265.86137203 597.75782696 -268.59423281 600.84996806 -271.375 604.12109375 C-273.46404877 606.53655639 -275.74250493 608.74250493 -278 611 C-278.825 611.99 -279.65 612.98 -280.5 614 C-282.87370999 616.84845198 -285.37933694 619.37933694 -288 622 C-299.21913465 634.0518048 -309.33688226 646.73288552 -318.265625 660.55859375 C-320 663 -320 663 -322 664 C-323.01035486 665.72049 -323.96002724 667.47694398 -324.875 669.25 C-326.41874742 672.24050548 -327.89144137 674.86546333 -330.0078125 677.48828125 C-332.14671777 680.18497946 -333.52873998 682.83106239 -335 685.9375 C-337.07264933 690.20809736 -339.3447301 694.06287567 -342 698 C-343.04718798 700.31254012 -344.04346365 702.6485148 -345 705 C-345.64304757 706.41793334 -346.28905654 707.83452615 -346.9375 709.25 C-348.8447706 713.52141591 -350.44529395 717.86835097 -352.00390625 722.27734375 C-352.90151318 724.73080268 -353.89978201 727.10366328 -354.9375 729.5 C-366.17291238 757.58853095 -367.79119587 789.33155208 -364 819 C-363.89816406 819.79776855 -363.79632812 820.59553711 -363.69140625 821.41748047 C-360.7448869 843.68461821 -354.51988753 866.96862585 -344.02734375 886.91796875 C-342.88594766 889.23114029 -341.88854314 891.59466113 -340.88110352 893.96850586 C-339.17026291 897.91306243 -337.33147542 901.79788142 -335.5 905.6875 C-335.10941406 906.52861328 -334.71882812 907.36972656 -334.31640625 908.23632812 C-333.93355469 909.04908203 -333.55070313 909.86183594 -333.15625 910.69921875 C-332.81400391 911.42971436 -332.47175781 912.16020996 -332.11914062 912.9128418 C-330.93181125 915.12716964 -329.5320419 917.01264627 -328 919 C-327.03464606 920.69274948 -326.09891198 922.40260712 -325.1875 924.125 C-320.21785926 933.3543328 -314.65965167 942.1820091 -309 951 C-308.26662933 952.15215428 -307.53356928 953.30450632 -306.80078125 954.45703125 C-302.86144406 960.63829497 -298.86223822 966.7487622 -294.60546875 972.71875 C-293.43150781 974.38685995 -292.28551681 976.07475226 -291.15625 977.7734375 C-289.54333248 980.18696987 -287.90755149 982.57131533 -286.23828125 984.9453125 C-285.75939453 985.62980469 -285.28050781 986.31429687 -284.78710938 987.01953125 C-283.79650458 988.4339312 -282.80164115 989.84535723 -281.80273438 991.25390625 C-281.09020508 992.27677734 -281.09020508 992.27677734 -280.36328125 993.3203125 C-279.93313721 993.93148926 -279.50299316 994.54266602 -279.05981445 995.17236328 C-278 997 -278 997 -277.53979492 999.16748047 C-277.3616626 999.77221191 -277.18353027 1000.37694336 -277 1001 C-276.01 1001.33 -275.02 1001.66 -274 1002 C-272.53515625 1003.85546875 -272.53515625 1003.85546875 -271.0625 1006.1875 C-270.27359375 1007.41726563 -270.27359375 1007.41726563 -269.46875 1008.671875 C-268.9840625 1009.44015625 -268.499375 1010.2084375 -268 1011 C-264.43447585 1016.40579468 -260.72273711 1021.70195729 -257 1027 C-255.24617264 1029.50435658 -253.49340288 1032.00944121 -251.7421875 1034.515625 C-250.60717702 1036.13416012 -249.46680509 1037.74895286 -248.3203125 1039.359375 C-243.99727864 1045.4554504 -239.93298908 1051.69516242 -235.91796875 1057.99609375 C-234.63193108 1060.01027495 -233.32558478 1062.01162282 -232 1064 C-232 1064.99 -232 1065.98 -232 1067 C-231.34 1067 -230.68 1067 -230 1067 C-228.703125 1068.8359375 -228.703125 1068.8359375 -227.25 1071.375 C-226.45722656 1072.74398438 -226.45722656 1072.74398438 -225.6484375 1074.140625 C-225.10445312 1075.08421875 -224.56046875 1076.0278125 -224 1077 C-222.96079192 1078.70983005 -221.91921006 1080.41822011 -220.875 1082.125 C-219.02513996 1085.19518656 -217.32025651 1088.27806627 -215.75 1091.5 C-214.25034698 1094.96047153 -214.25034698 1094.96047153 -212 1097 C-211.26023631 1098.68203252 -210.52474259 1100.36627775 -209.82519531 1102.06542969 C-208.23897147 1105.78413908 -206.30808931 1109.34750342 -204.4296875 1112.92578125 C-202.71770766 1116.26856947 -201.52041835 1119.27267937 -201 1123 C-202.875 1122.75 -202.875 1122.75 -205 1122 C-205.309375 1121.360625 -205.61875 1120.72125 -205.9375 1120.0625 C-207.39884268 1117.22577597 -209.0764354 1117.15582786 -212 1116 C-213.70993434 1114.3777546 -215.37347684 1112.70586575 -217 1111 C-218.485 1109.7625 -218.485 1109.7625 -220 1108.5 C-222.8411196 1106.13240033 -225.38726974 1103.61273026 -228 1101 C-228.825 1100.34 -229.65 1099.68 -230.5 1099 C-233.2128793 1096.82969656 -235.55878704 1094.47291703 -238 1092 C-244.48574201 1085.43049797 -250.97270666 1078.99626189 -258 1073 C-259.84021525 1071.40373259 -261.67333868 1069.79925998 -263.5 1068.1875 C-264.3559375 1067.43855469 -265.211875 1066.68960937 -266.09375 1065.91796875 C-268 1064 -268 1064 -268 1062 C-268.9590625 1061.5978125 -268.9590625 1061.5978125 -269.9375 1061.1875 C-272 1060 -272 1060 -273 1057 C-273.66 1056.67 -274.32 1056.34 -275 1056 C-277 1055 -277 1055 -278 1052 C-279.32338632 1051.31379969 -280.65949948 1050.65213539 -282 1050 C-285.37229442 1047.43412381 -288.1777069 1044.88667237 -290.875 1041.625 C-293.67221122 1038.2477896 -296.78406468 1035.46385746 -300.1171875 1032.625 C-302.53866683 1030.53509253 -304.76929011 1028.29099935 -307 1026 C-307.886875 1025.154375 -308.77375 1024.30875 -309.6875 1023.4375 C-312 1021 -312 1021 -313.0625 1018.8125 C-314.27828157 1016.46198896 -315.66979756 1016.12751731 -318 1015 C-318.33 1014.01 -318.66 1013.02 -319 1012 C-320.32159366 1011.31035341 -321.65643647 1010.64580126 -323 1010 C-324.46484375 1008.51171875 -324.46484375 1008.51171875 -325.9375 1006.6875 C-329.26490089 1002.74205057 -332.8290837 999.12042298 -336.5 995.5 C-340.57856235 991.46337216 -344.53916443 987.40276798 -348.2578125 983.02734375 C-350.47388222 980.4485541 -352.76789175 977.94658944 -355.0625 975.4375 C-366 963.41459924 -366 963.41459924 -366 961 C-366.99 960.67 -367.98 960.34 -369 960 C-370.875 957.953125 -370.875 957.953125 -373 955.25 C-375.6073511 951.97047465 -378.21859091 948.71898402 -380.96484375 945.5546875 C-381.45919922 944.98331055 -381.95355469 944.41193359 -382.46289062 943.82324219 C-383.42692325 942.71300859 -384.39550188 941.60670183 -385.36914062 940.50488281 C-388.00660832 937.44825298 -389.51589443 934.71359151 -391 931 C-391.99 930.67 -392.98 930.34 -394 930 C-394.495 928.515 -394.495 928.515 -395 927 C-396.3174534 925.65097365 -397.65362478 924.32016261 -399 923 C-400.46829954 921.1490198 -401.90374388 919.27169118 -403.3125 917.375 C-403.70348877 916.84865967 -404.09447754 916.32231934 -404.49731445 915.7800293 C-408.09303692 910.9180732 -411.58228875 905.98823095 -415 901 C-415.58265625 900.15824219 -416.1653125 899.31648437 -416.765625 898.44921875 C-417.59320312 897.23685547 -417.59320312 897.23685547 -418.4375 896 C-418.93121094 895.278125 -419.42492187 894.55625 -419.93359375 893.8125 C-421 892 -421 892 -421 890 C-421.66 890 -422.32 890 -423 890 C-424.19140625 888.33984375 -424.19140625 888.33984375 -425.5625 885.9375 C-426.35527344 884.57044922 -426.35527344 884.57044922 -427.1640625 883.17578125 C-427.76992188 882.12777344 -428.37578125 881.07976563 -429 880 C-430.08779134 878.17736549 -431.18360177 876.35973315 -432.28076172 874.54272461 C-433.452964 872.59936267 -434.61778225 870.65172667 -435.78125 868.703125 C-437.10008399 866.49531589 -438.43199315 864.29895849 -439.78125 862.109375 C-448.06737969 848.42944391 -454.71168018 833.84189561 -459.7578125 818.6796875 C-460.81805674 815.53896399 -461.97646599 812.49584081 -463.25 809.4375 C-464.64886821 806.01804437 -465.69935081 802.68074376 -466.5078125 799.078125 C-466.84880578 797.63837561 -467.24350739 796.21070018 -467.6796875 794.796875 C-474.68070506 771.84508547 -475.49874853 746.36403782 -472.25 722.75 C-472.09273438 721.47898437 -471.93546875 720.20796875 -471.7734375 718.8984375 C-470.85211113 712.02392538 -469.52414326 705.80016293 -466.93017578 699.35766602 C-465.99754432 696.99377572 -465.28895445 694.6389016 -464.625 692.1875 C-460.75739406 678.9361944 -454.18131242 666.70424698 -447 655 C-446.52949219 654.20335937 -446.05898438 653.40671875 -445.57421875 652.5859375 C-444.91873047 651.49152344 -444.91873047 651.49152344 -444.25 650.375 C-443.86328125 649.72273437 -443.4765625 649.07046875 -443.078125 648.3984375 C-442.72234375 647.93695312 -442.3665625 647.47546875 -442 647 C-441.34 647 -440.68 647 -440 647 C-439.505 644.525 -439.505 644.525 -439 642 C-438.34 642 -437.68 642 -437 642 C-436.75121094 641.278125 -436.50242187 640.55625 -436.24609375 639.8125 C-434.8808399 636.7310493 -433.22503259 634.57732003 -431.0625 632 C-429.01840112 629.55472284 -427.15168945 627.26309282 -425.55859375 624.5 C-423.7137713 621.54088629 -421.49498423 619.43224055 -419 617 C-417.22813127 614.95161237 -415.47966144 612.89550301 -413.75 610.8125 C-409.61396786 605.87628425 -405.39193623 601.03905633 -401.0546875 596.27734375 C-399.12044884 594.13350128 -397.24574768 591.94916783 -395.375 589.75 C-392.71816269 586.68912752 -389.8813475 584.13666935 -386.7578125 581.56640625 C-384.12421945 579.21958222 -381.90453887 576.55764886 -379.6171875 573.87890625 C-375.58009087 569.18846307 -371.00441707 564.66822511 -366 561 C-365.34 561 -364.68 561 -364 561 C-363.5978125 560.0409375 -363.5978125 560.0409375 -363.1875 559.0625 C-362 557 -362 557 -359 556 C-358.71640625 555.41089844 -358.4328125 554.82179688 -358.140625 554.21484375 C-356.57764771 551.17988443 -354.42103162 549.66794432 -351.75 547.5625 C-350.76386719 546.77617188 -349.77773438 545.98984375 -348.76171875 545.1796875 C-347.85035156 544.46039062 -346.93898438 543.74109375 -346 543 C-343.12410757 540.66882854 -340.3358189 538.3451472 -337.75 535.6875 C-336 534 -336 534 -334 534 C-333.67 533.01 -333.34 532.02 -333 531 C-330.98828125 529.16015625 -330.98828125 529.16015625 -328.3125 527.0625 C-324.92597675 524.37098871 -321.58489314 521.66441781 -318.33203125 518.8125 C-317.71610107 518.27359131 -317.1001709 517.73468262 -316.46557617 517.17944336 C-315.25962526 516.12001733 -314.05779168 515.05588181 -312.8605957 513.98657227 C-309.65758297 511.18733549 -306.9920916 509.5605449 -303 508 C-302.67 507.01 -302.34 506.02 -302 505 C-301.01 504.67 -300.02 504.34 -299 504 C-298.319375 503.319375 -297.63875 502.63875 -296.9375 501.9375 C-296.298125 501.298125 -295.65875 500.65875 -295 500 C-294.34 500 -293.68 500 -293 500 C-293 499.34 -293 498.68 -293 498 C-291.171875 496.37890625 -291.171875 496.37890625 -288.75 494.5625 C-287.96109375 493.96566406 -287.1721875 493.36882812 -286.359375 492.75390625 C-285.19148438 491.88572266 -285.19148438 491.88572266 -284 491 C-283.28328125 490.43152344 -282.5665625 489.86304688 -281.828125 489.27734375 C-280 488 -280 488 -278 488 C-277.67 487.01 -277.34 486.02 -277 485 C-276.01 484.67 -275.02 484.34 -274 484 C-272.64133045 482.69249374 -271.31153928 481.35477684 -270 480 C-268.31200649 478.55915819 -266.60294811 477.1426746 -264.875 475.75 C-263.57175781 474.69039063 -263.57175781 474.69039063 -262.2421875 473.609375 C-260 472 -260 472 -258 472 C-258 471.34 -258 470.68 -258 470 C-256.34789676 468.97611883 -254.67747162 467.98176715 -253 467 C-251.03712091 465.42698931 -249.10104975 463.82016172 -247.1875 462.1875 C-243.15877461 458.77577548 -239.07857316 455.49349085 -234.8125 452.3828125 C-232.2580887 450.43397284 -229.89897437 448.28408552 -227.54296875 446.1015625 C-226 445 -226 445 -223 445 C-222.67 444.01 -222.34 443.02 -222 442 C-219.73860307 440.24177835 -217.49025019 438.60515981 -215.125 437 C-213.85495121 436.12764326 -212.58666099 435.25271962 -211.3203125 434.375 C-210.47364014 433.79878906 -210.47364014 433.79878906 -209.60986328 433.2109375 C-207.90893973 431.93150456 -206.47672466 430.52969668 -205 429 C-199.46478873 424 -199.46478873 424 -197 424 C-197 423.34 -197 422.68 -197 422 C-195.34765625 420.51953125 -195.34765625 420.51953125 -193.0625 418.8125 C-192.2478125 418.19890625 -191.433125 417.5853125 -190.59375 416.953125 C-189.7378125 416.30859375 -188.881875 415.6640625 -188 415 C-185.61268695 413.09899146 -183.22779261 411.19514222 -180.84765625 409.28515625 C-179 408 -179 408 -177 408 C-176.34 406.68 -175.68 405.36 -175 404 C-174.01 404 -173.02 404 -172 404 C-171.79503906 403.44957031 -171.59007812 402.89914062 -171.37890625 402.33203125 C-169.47543239 399.11284175 -166.79683518 397.02179194 -163.9375 394.6875 C-163.35621338 394.204021 -162.77492676 393.72054199 -162.17602539 393.22241211 C-158.15826578 389.89746523 -154.07379472 386.66574614 -149.90234375 383.53515625 C-147.88778789 381.97353223 -147.88778789 381.97353223 -145.87890625 379.80859375 C-144 378 -144 378 -142 378 C-141.690625 377.1646875 -141.690625 377.1646875 -141.375 376.3125 C-139.42316968 373.02987629 -137.05769006 371.29326754 -134 369 C-133.34 369 -132.68 369 -132 369 C-131.75822021 368.42064697 -131.51644043 367.84129395 -131.26733398 367.24438477 C-129.75852079 364.57235246 -128.05701696 363.08148868 -125.72265625 361.08984375 C-119.63180801 355.74186205 -113.91166307 350.06295238 -108.19213867 344.32250977 C-106.41245245 342.53737578 -104.62736645 340.75776288 -102.84179688 338.97851562 C-101.70540768 337.84146704 -100.56932797 336.70410905 -99.43359375 335.56640625 C-98.90140732 335.03624405 -98.36922089 334.50608185 -97.82090759 333.95985413 C-95.06872364 331.23773067 -95.06872364 331.23773067 -93 328 C-92.34 328 -91.68 328 -91 328 C-90.731875 327.360625 -90.46375 326.72125 -90.1875 326.0625 C-89 324 -89 324 -86 323 C-85.71125 322.2575 -85.4225 321.515 -85.125 320.75 C-83.71665643 317.3073824 -81.77942591 315.43199767 -79 313 C-78.34 313 -77.68 313 -77 313 C-76.34 311.35 -75.68 309.7 -75 308 C-74.34 308 -73.68 308 -73 308 C-72.34 306.35 -71.68 304.7 -71 303 C-70.34 303 -69.68 303 -69 303 C-68.7525 302.45730469 -68.505 301.91460937 -68.25 301.35546875 C-66.72559225 298.4829129 -64.91080823 295.94337383 -63 293.3125 C-62.29875 292.33925781 -61.5975 291.36601562 -60.875 290.36328125 C-59 288 -59 288 -57 287 C-55.96986723 285.35178756 -54.97934924 283.67888441 -54 282 C-52.99248479 280.38743543 -51.97066492 278.78375237 -50.9375 277.1875 C-50.43089844 276.39730469 -49.92429687 275.60710937 -49.40234375 274.79296875 C-48.70818359 273.90544922 -48.70818359 273.90544922 -48 273 C-47.34 273 -46.68 273 -46 273 C-45.88785156 272.42121094 -45.77570313 271.84242188 -45.66015625 271.24609375 C-44.93082651 268.76464641 -43.92451478 267.17349373 -42.4375 265.0625 C-31.08480901 248.4514367 -20.30035124 230.4051076 -13.0234375 211.6015625 C-11.94997854 208.87284622 -10.78898104 206.19124278 -9.625 203.5 C-1.95617548 185.10423074 3.52179317 165.74519617 6.63867188 146.07836914 C7.0337527 143.80585357 7.52305449 141.562762 8.01171875 139.30859375 C9.23304662 133.26356783 9.70550914 127.20855897 10.125 121.0625 C10.2084668 119.84103271 10.29193359 118.61956543 10.37792969 117.36108398 C12.18352987 88.69441748 11.08440225 60.16006928 6.0625 31.875 C5.93534607 31.15770721 5.80819214 30.44041443 5.67718506 29.7013855 C4.31877387 22.1402019 2.79879246 14.69062464 0.54858398 7.33642578 C-0.04257557 4.81867013 -0.09586384 2.57716347 0 0 Z " fill="#E76F00" transform="translate(960,0)"/>
<path d="M0 0 C0.54914063 0.5053125 1.09828125 1.010625 1.6640625 1.53125 C1.6640625 2.52125 1.6640625 3.51125 1.6640625 4.53125 C0.81513428 4.5405957 -0.03379395 4.54994141 -0.90844727 4.55957031 C-17.94864323 4.79408424 -34.27974979 5.6096733 -51.02685547 9.07324219 C-54.19713964 9.70206996 -57.38488551 10.15196739 -60.5859375 10.59375 C-65.44928066 11.31685234 -70.08030068 12.45120252 -74.80078125 13.81640625 C-77.07593237 14.45793576 -79.33520726 14.98735954 -81.6484375 15.46875 C-90.83512102 17.45728078 -99.78464342 20.22853632 -108.57421875 23.5390625 C-111.55115056 24.60856841 -114.55196124 25.51194762 -117.5859375 26.40625 C-125.03433639 28.65582588 -132.14880396 31.57325288 -139.3359375 34.53125 C-141.1267653 35.24170152 -142.9183222 35.95032087 -144.7109375 36.65625 C-157.42523448 41.76710414 -170.61598963 47.76658881 -181.49609375 56.20703125 C-183.3359375 57.53125 -183.3359375 57.53125 -185.3359375 57.53125 C-185.6659375 58.52125 -185.9959375 59.51125 -186.3359375 60.53125 C-187.98082044 62.21941933 -189.64931292 63.88478315 -191.3359375 65.53125 C-194.70677537 69.02247494 -195.3359375 72.792886 -195.3359375 77.53125 C-194.80374659 81.35772392 -194.80374659 81.35772392 -193.3359375 84.53125 C-192.02767837 85.24586897 -190.68944344 85.90655495 -189.3359375 86.53125 C-187.91053558 87.60306385 -186.49473739 88.68770603 -185.0859375 89.78125 C-178.91825406 94.16979398 -172.25006797 96.42927458 -165.16162109 98.88330078 C-162.78835496 99.72559127 -160.4705382 100.68271023 -158.1484375 101.65625 C-152.32825128 103.99969132 -146.35330002 105.7723953 -140.3359375 107.53125 C-139.55750488 107.76102539 -138.77907227 107.99080078 -137.97705078 108.22753906 C-126.17116027 111.70425936 -114.35528388 114.88735816 -102.3359375 117.53125 C-101.28954102 117.76344238 -100.24314453 117.99563477 -99.16503906 118.23486328 C-86.26752593 121.08709344 -73.38785689 123.84207536 -60.3359375 125.88671875 C-56.39940937 126.50512604 -52.49604412 127.26263025 -48.5859375 128.03125 C-41.15385563 129.45077764 -33.69350549 130.48757291 -26.19287109 131.47436523 C-21.51157595 132.09144134 -16.85818902 132.75118882 -12.2109375 133.59375 C-6.31678056 134.61955192 -0.39418588 135.15223434 5.55834961 135.71118164 C12.01423697 136.33036995 18.42710202 137.14763925 24.8515625 138.03125 C33.83889717 139.25014028 42.81275989 140.09582143 51.85668945 140.76171875 C58.69294123 141.27170742 65.50356597 141.91184452 72.3203125 142.63671875 C85.66099723 144.0520645 98.95930608 145.05722504 112.35464478 145.74455261 C120.47558345 146.16463208 128.58878893 146.64581951 136.69995117 147.22583008 C163.59464172 149.1442602 190.46279609 150.44538576 217.4140625 151.21875 C219.00478325 151.26528088 219.00478325 151.26528088 220.62763977 151.31275177 C306.11178351 153.80001766 391.73780941 153.47005262 583.03807068 146.16004944 C590.66463092 145.6247532 598.28509766 145.28978561 605.92578125 145.03515625 C616.98916972 144.66091517 627.97532935 143.87051458 638.99740601 142.86080933 C644.07387273 142.39599018 649.15214927 141.951861 654.23046875 141.5078125 C655.22456253 141.42057419 656.21865631 141.33333588 657.24287415 141.24345398 C665.44009745 140.53216862 673.63879826 139.9674472 681.8515625 139.46875 C692.43121716 138.81837628 702.9381593 137.82657481 713.47021484 136.63647461 C721.13156018 135.77670503 728.7882192 135.09641088 736.4765625 134.53125 C745.44328507 133.86464218 754.31522486 132.86584956 763.22094727 131.63452148 C769.61019798 130.76233805 775.98753166 130.11655476 782.4140625 129.59375 C791.99973373 128.80002091 801.46281508 127.45566547 810.9675293 125.99462891 C817.21209525 125.03585821 823.44596357 124.1523526 829.7265625 123.46875 C836.22181178 122.74563358 842.6330792 121.74991378 849.07202148 120.63647461 C853.80075928 119.8236185 858.52736692 119.13146373 863.2890625 118.53125 C869.04909896 117.7913727 874.73417742 116.81120067 880.43139648 115.70043945 C884.63643618 114.88829012 888.84303413 114.1845905 893.0793457 113.55664062 C907.05792491 111.47795215 920.849434 108.48830283 934.6640625 105.53125 C935.54513672 105.3441748 936.42621094 105.15709961 937.33398438 104.96435547 C956.00391732 100.98863911 974.50943594 96.44252465 992.6640625 90.53125 C994.93379635 89.84012879 997.20458836 89.15247055 999.4765625 88.46875 C1014.43169025 83.8319273 1027.89756917 77.32038178 1041.52734375 69.66015625 C1043.6640625 68.53125 1043.6640625 68.53125 1046.6640625 67.53125 C1046.6640625 66.87125 1046.6640625 66.21125 1046.6640625 65.53125 C1047.251875 65.27988281 1047.8396875 65.02851562 1048.4453125 64.76953125 C1052.36017464 62.58465221 1054.831759 58.94062704 1057.6640625 55.53125 C1058.746875 54.3246875 1058.746875 54.3246875 1059.8515625 53.09375 C1065.04667177 45.74894034 1067.19885835 38.53837308 1065.6640625 29.53125 C1063.99670619 25.31585661 1061.88978828 21.47096959 1059.6640625 17.53125 C1059.3340625 16.54125 1059.0040625 15.55125 1058.6640625 14.53125 C1058.0040625 14.53125 1057.3440625 14.53125 1056.6640625 14.53125 C1055.27468173 12.56977126 1053.9380214 10.56958424 1052.6640625 8.53125 C1059.16078372 8.90372868 1063.37481018 11.37342077 1068.7890625 14.84375 C1069.57410156 15.33037109 1070.35914063 15.81699219 1071.16796875 16.31835938 C1075.20113347 18.84503845 1079.01969109 21.45694786 1082.6640625 24.53125 C1083.4684375 25.19125 1084.2728125 25.85125 1085.1015625 26.53125 C1091.79775391 34.3706936 1094.56023551 42.03364022 1094.05078125 52.3359375 C1092.81283022 62.56466415 1086.99121872 69.57984538 1079.6640625 76.53125 C1078.8184375 77.376875 1077.9728125 78.2225 1077.1015625 79.09375 C1076.2971875 79.898125 1075.4928125 80.7025 1074.6640625 81.53125 C1073.9628125 82.294375 1073.2615625 83.0575 1072.5390625 83.84375 C1070.6640625 85.53125 1070.6640625 85.53125 1067.6640625 85.53125 C1067.3340625 86.52125 1067.0040625 87.51125 1066.6640625 88.53125 C1064.40625 90.21484375 1064.40625 90.21484375 1061.5390625 91.96875 C1060.54261719 92.58105469 1059.54617188 93.19335938 1058.51953125 93.82421875 C1053.31997894 96.93256945 1048.08748808 99.82605575 1042.6640625 102.53125 C1041.53613281 103.11261719 1040.40820312 103.69398437 1039.24609375 104.29296875 C1026.4012037 110.88127564 1013.19741841 116.51567617 999.6640625 121.53125 C997.53786991 122.34062403 995.4128003 123.15295651 993.2890625 123.96875 C992.16757813 124.39929687 991.04609375 124.82984375 989.890625 125.2734375 C987.13350116 126.34824849 984.39832662 127.46263748 981.6640625 128.59375 C976.91344132 130.50316366 972.07833731 132.00750389 967.17578125 133.4765625 C963.55585819 134.5637474 959.95439804 135.70129645 956.3515625 136.84375 C941.00059994 141.66160226 925.56873201 146.21995425 909.92285156 149.98046875 C907.2257928 150.63811732 904.53484474 151.3183598 901.84375 152 C900.80347656 152.26288818 899.76320313 152.52577637 898.69140625 152.79663086 C896.66500318 153.30903839 894.63893255 153.82276337 892.61328125 154.33813477 C886.21895989 155.94696241 879.80173513 157.38545099 873.35058594 158.74780273 C869.5270052 159.56037694 865.71012624 160.40095087 861.89453125 161.25 C835.82622429 167.03323049 835.82622429 167.03323049 824.0390625 168.92578125 C820.90613004 169.48782353 817.86492669 170.24075815 814.78417969 171.03393555 C810.9899307 171.92394996 807.14195043 172.46060983 803.2890625 173.03125 C795.82552745 174.16496782 795.82552745 174.16496782 788.4140625 175.59375 C784.47438008 176.42530926 780.5335253 176.96217572 776.5390625 177.46875 C771.24360785 178.14397364 766.02684656 178.99516938 760.7890625 180.03125 C754.59775801 181.2476681 748.4275508 182.08405072 742.15625 182.76171875 C736.99501975 183.3341461 731.90261621 184.13157631 726.7890625 185.03125 C719.8679585 186.23947125 712.96584448 187.08389638 705.97436523 187.76171875 C700.06973619 188.34696481 694.21852442 189.14880301 688.3515625 190.03125 C680.28163862 191.234294 672.2267879 192.08144832 664.09741211 192.76171875 C657.34167567 193.34056159 650.63558008 194.1434713 643.9140625 195.03125 C634.54890343 196.25460277 625.19811355 197.09596182 615.77807617 197.76171875 C607.57318086 198.35179891 599.40609218 199.16203714 591.2265625 200.03125 C579.10804197 201.294459 567.01429387 202.11947734 554.84812927 202.74455261 C545.15025611 203.24801339 535.46833967 203.8858157 525.78390503 204.6002655 C503.21448601 206.26461999 480.65677008 207.47135433 458.0390625 208.21875 C457.11624607 208.24977058 456.19342964 208.28079117 455.24264908 208.31275177 C369.10197728 211.18295734 282.50410739 211.00509002 115.54255676 203.16004944 C108.49492385 202.62245661 101.45369325 202.28953774 94.390625 202.03515625 C84.40059997 201.66996275 74.5033675 200.88942882 64.56152344 199.86080933 C60.04129473 199.39381224 55.51882311 198.94984347 50.99609375 198.5078125 C50.10499908 198.42057419 49.21390442 198.33333588 48.29580688 198.24345398 C40.59302279 197.50096917 32.88788349 196.94889666 25.1640625 196.46875 C15.10278364 195.83771674 5.1317301 194.86106615 -4.87402344 193.63647461 C-12.10296582 192.75918116 -19.32551342 192.08567811 -26.5859375 191.53125 C-35.19788826 190.86673459 -43.70876311 189.87059916 -52.2565918 188.63671875 C-58.46035774 187.75214181 -64.65645103 187.07963857 -70.8984375 186.53125 C-78.84615283 185.8293468 -86.70753232 184.81738786 -94.59741211 183.63671875 C-100.37532084 182.78177177 -106.14810263 182.09806294 -111.9609375 181.53125 C-119.12012408 180.82909186 -126.18388379 179.8124167 -133.27954102 178.63671875 C-138.64080593 177.7615004 -143.99522358 177.08649545 -149.3984375 176.53125 C-156.10469455 175.83626708 -162.71822007 174.86407374 -169.35986328 173.70922852 C-175.31630417 172.67942492 -181.28666409 171.80295515 -187.2734375 170.96875 C-193.42103598 170.11112478 -199.52148003 169.16889052 -205.6171875 167.9921875 C-209.11335089 167.39944716 -212.62724806 167.00254463 -216.1484375 166.59375 C-222.45678542 165.85019458 -228.58511573 164.71681269 -234.78515625 163.3125 C-238.55835168 162.48231399 -242.34721905 161.77944363 -246.1484375 161.09375 C-251.92804329 160.03115092 -257.67059213 158.84514862 -263.3984375 157.53125 C-264.4335144 157.3003064 -264.4335144 157.3003064 -265.48950195 157.06469727 C-270.06638904 155.99050148 -274.0613911 154.4248436 -278.3359375 152.53125 C-279.84733676 152.06219506 -281.36796074 151.62121884 -282.8984375 151.21875 C-289.62959764 149.2836715 -295.95011976 146.37450315 -302.3359375 143.53125 C-302.3359375 142.87125 -302.3359375 142.21125 -302.3359375 141.53125 C-303.0578125 141.43199219 -303.7796875 141.33273437 -304.5234375 141.23046875 C-311.818242 139.4168993 -318.10939005 133.56917493 -322.3359375 127.53125 C-322.8 126.92152344 -323.2640625 126.31179688 -323.7421875 125.68359375 C-327.93006828 119.45993759 -328.6088639 112.91568189 -327.74804688 105.52148438 C-326.54722085 99.72223452 -323.36595682 94.54778709 -320.3359375 89.53125 C-319.6759375 89.53125 -319.0159375 89.53125 -318.3359375 89.53125 C-318.1709375 88.850625 -318.0059375 88.17 -317.8359375 87.46875 C-315.9577049 83.79054449 -313.5087421 81.85233717 -310.3671875 79.234375 C-307.25117941 76.62172207 -304.42369851 73.7445219 -301.7109375 70.71875 C-300.3359375 69.53125 -300.3359375 69.53125 -297.3359375 69.53125 C-297.3359375 68.87125 -297.3359375 68.21125 -297.3359375 67.53125 C-285.58822493 57.37106616 -270.22960105 50.25436219 -256.33740234 43.51220703 C-254.2814814 42.50456 -252.23923738 41.47302953 -250.19921875 40.43359375 C-242.36685659 36.44701774 -234.5124615 32.77258305 -226.3359375 29.53125 C-225.14226562 29.04914063 -223.94859375 28.56703125 -222.71875 28.0703125 C-218.93073712 26.54136288 -215.13454328 25.03365371 -211.3359375 23.53125 C-209.60730469 22.84482422 -209.60730469 22.84482422 -207.84375 22.14453125 C-202.08685165 19.88918166 -196.3507956 17.84960971 -190.40625 16.1484375 C-188.21738381 15.53150212 -188.21738381 15.53150212 -185.7109375 14.46875 C-183.12598956 13.44837581 -180.51864434 12.8054727 -177.8203125 12.15625 C-170.08106122 10.20926855 -162.43767421 7.89128148 -154.8359375 5.46875 C-148.08018713 3.38384139 -141.26444056 1.90814319 -134.3359375 0.53125 C-132.30463388 0.12266231 -130.27338883 -0.28621663 -128.2421875 -0.6953125 C-122.90431005 -1.76799789 -117.56558703 -2.83619769 -112.22387695 -3.88964844 C-110.42809996 -4.24974507 -108.63444111 -4.6208039 -106.84448242 -5.00878906 C-76.01828411 -11.60336999 -27.7874593 -17.47171354 0 0 Z " fill="#5281A0" transform="translate(327.3359375,1740.46875)"/>
<path d="M0 0 C-1.26317123 3.78951368 -2.26200188 3.92837956 -5.75 5.6875 C-11.40157009 8.62395548 -16.70808593 11.91492028 -22.0546875 15.36328125 C-24.81711588 16.89837076 -26.89121314 17.60423193 -30 18 C-30 18.66 -30 19.32 -30 20 C-31.28913487 20.67154933 -32.58140204 21.33708859 -33.875 22 C-34.59429688 22.37125 -35.31359375 22.7425 -36.0546875 23.125 C-38 24 -38 24 -40 24 C-40 24.66 -40 25.32 -40 26 C-40.77114136 26.4185022 -40.77114136 26.4185022 -41.55786133 26.84545898 C-48.0466533 30.40466058 -54.37334827 34.20362438 -60.6875 38.0625 C-61.69361328 38.67416016 -62.69972656 39.28582031 -63.73632812 39.91601562 C-69.70898729 43.54998586 -69.70898729 43.54998586 -75.51953125 47.43359375 C-78 49 -78 49 -81 49 C-81 49.66 -81 50.32 -81 51 C-82.625 52.15625 -82.625 52.15625 -85 53.5 C-89.71540674 56.23949056 -94.37335452 59.05148121 -99 61.9375 C-100.0362854 62.58356201 -100.0362854 62.58356201 -101.09350586 63.24267578 C-105.8054592 66.20070744 -110.37865153 69.31094158 -114.90234375 72.55078125 C-116.76922342 73.84056217 -118.63714136 74.97295779 -120.625 76.0625 C-124.0050459 78.00289672 -126.95019774 80.1924598 -130.03125 82.5625 C-131.80951261 83.86091397 -133.56992494 84.94723179 -135.5 86 C-138.92459265 87.86867042 -141.93856796 90.13452308 -145.0078125 92.53515625 C-147.25756773 94.18938803 -149.60107733 95.56954397 -152 97 C-154.57955146 98.6619905 -157.13392721 100.36094374 -159.6875 102.0625 C-160.36361328 102.50916016 -161.03972656 102.95582031 -161.73632812 103.41601562 C-162.70795898 104.06280273 -162.70795898 104.06280273 -163.69921875 104.72265625 C-164.28533936 105.11203369 -164.87145996 105.50141113 -165.4753418 105.90258789 C-167.16121408 107.05399986 -167.16121408 107.05399986 -169 109 C-169.99 109 -170.98 109 -172 109 C-172 109.66 -172 110.32 -172 111 C-173.9765625 112.5859375 -173.9765625 112.5859375 -176.625 114.375 C-177.48351563 114.96023438 -178.34203125 115.54546875 -179.2265625 116.1484375 C-181.12719441 117.41731007 -183.03377659 118.6773019 -184.9453125 119.9296875 C-189.23079386 122.83416975 -193.29216353 126.01136989 -197.390625 129.171875 C-200 131 -200 131 -202 131 C-202.33 131.99 -202.66 132.98 -203 134 C-204.96058225 135.39064555 -206.96815322 136.71571949 -209 138 C-217.1954876 144.01583664 -224.96300668 150.45820723 -232.64453125 157.109375 C-238.89816887 162.51811956 -245.31183733 167.72220652 -251.875 172.75 C-255.93862144 175.89205015 -259.6532608 179.08348652 -262.625 183.3125 C-263.07875 183.869375 -263.5325 184.42625 -264 185 C-264.99 185 -265.98 185 -267 185 C-267.226875 185.556875 -267.45375 186.11375 -267.6875 186.6875 C-269.37377267 189.65855185 -271.530354 191.64522125 -274 194 C-274.86625 194.886875 -275.7325 195.77375 -276.625 196.6875 C-279 199 -279 199 -282 201 C-282.30808594 201.62777344 -282.61617187 202.25554687 -282.93359375 202.90234375 C-284.24178173 205.47559263 -285.82957751 206.75103657 -288.0625 208.5625 C-291.33584139 211.18282506 -291.33584139 211.18282506 -293 215 C-294.64109568 216.69185121 -296.31170668 218.35524433 -298 220 C-299.56702321 221.81170789 -301.10900585 223.64538172 -302.625 225.5 C-303.38039063 226.4178125 -304.13578125 227.335625 -304.9140625 228.28125 C-307.04705138 230.94052702 -307.04705138 230.94052702 -308.6484375 233.84375 C-309.09445312 234.5553125 -309.54046875 235.266875 -310 236 C-310.66 236 -311.32 236 -312 236 C-312.26554688 236.72574219 -312.53109375 237.45148438 -312.8046875 238.19921875 C-314.00362227 241.00848747 -315.41478575 243.28695105 -317.125 245.8125 C-321.36253692 252.33724305 -324.74082647 259.21377033 -328.12475586 266.20483398 C-328.92713051 267.85054132 -329.75342663 269.48452951 -330.58203125 271.1171875 C-335.28154546 280.67157177 -337.61105909 290.17262835 -339.3125 300.625 C-339.48386475 301.66116455 -339.65522949 302.6973291 -339.83178711 303.76489258 C-341.5616159 315.14970536 -341.2310873 325.84325846 -339.375 337.1875 C-339.1982373 338.27393799 -339.02147461 339.36037598 -338.83935547 340.47973633 C-337.22188027 349.78744574 -334.6106364 358.2955007 -331 367 C-330.53722656 368.17175781 -330.07445312 369.34351563 -329.59765625 370.55078125 C-321.88854825 389.40713129 -311.30608148 407.19210474 -299.5625 423.78515625 C-297.65498104 426.48906437 -295.82094023 429.23719414 -294 432 C-291.25100631 436.16745099 -288.41569088 440.26069509 -285.5 444.3125 C-281.18267021 450.33489155 -276.89448117 456.37715951 -272.62988281 462.43701172 C-269.95844151 466.23204503 -267.27478518 470.01747736 -264.5703125 473.7890625 C-264.01456543 474.56725342 -263.45881836 475.34544434 -262.88623047 476.1472168 C-261.81348845 477.64876751 -260.73711268 479.14773027 -259.65673828 480.64379883 C-256 485.77514722 -256 485.77514722 -256 488 C-255.34 488 -254.68 488 -254 488 C-247.68782698 496.05228559 -243.31305407 505.76907771 -239 515 C-238.68498535 515.66773438 -238.3699707 516.33546875 -238.04541016 517.0234375 C-223.84029987 547.62134924 -221.67145665 585.09192288 -233 617 C-233.25620117 617.74056641 -233.51240234 618.48113281 -233.77636719 619.24414062 C-236.80391611 627.81625952 -240.7282599 635.98426391 -245 644 C-245.31275879 644.59893066 -245.62551758 645.19786133 -245.94775391 645.81494141 C-253.81116253 660.79992765 -263.85785514 673.77146117 -274.91796875 686.5234375 C-276.99866247 688.80294959 -276.99866247 688.80294959 -278 691 C-278.66 691 -279.32 691 -280 691 C-280.23630127 691.56154785 -280.47260254 692.1230957 -280.71606445 692.70166016 C-282.3005967 695.53809038 -284.23935527 697.48130046 -286.54296875 699.7734375 C-287.90711914 701.1346875 -287.90711914 701.1346875 -289.29882812 702.5234375 C-289.77392822 702.99233398 -290.24902832 703.46123047 -290.73852539 703.94433594 C-292.17059387 705.35830751 -293.59465585 706.77995599 -295.01757812 708.203125 C-299.85894462 713.01382837 -304.74819933 717.64154687 -310 722 C-310.55365234 722.48243164 -311.10730469 722.96486328 -311.67773438 723.46191406 C-315.77086213 727 -315.77086213 727 -318 727 C-318.66 728.32 -319.32 729.64 -320 731 C-320.99 731 -321.98 731 -323 731 C-323.33 731.99 -323.66 732.98 -324 734 C-325.9765625 735.65625 -325.9765625 735.65625 -328.625 737.5 C-330.12160156 738.55574219 -330.12160156 738.55574219 -331.6484375 739.6328125 C-332.46199707 740.20370605 -332.46199707 740.20370605 -333.29199219 740.78613281 C-335.05810835 742.04129713 -336.8006121 743.32400778 -338.5390625 744.6171875 C-347.17514124 751.04118177 -356.00196288 757.09602477 -365 763 C-366.07121094 763.75410156 -367.14242187 764.50820312 -368.24609375 765.28515625 C-371 767 -371 767 -374 767 C-374 767.66 -374 768.32 -374 769 C-375.28913487 769.67154933 -376.58140204 770.33708859 -377.875 771 C-378.59429688 771.37125 -379.31359375 771.7425 -380.0546875 772.125 C-382 773 -382 773 -384 773 C-384 773.66 -384 774.32 -384 775 C-390.625 778.125 -390.625 778.125 -394 777 C-393.50371094 776.5875 -393.00742187 776.175 -392.49609375 775.75 C-386.90709129 770.99881765 -382.1105401 765.87583171 -377.5234375 760.16015625 C-376.38415386 758.74437979 -375.19666617 757.36761847 -374 756 C-373.34 756 -372.68 756 -372 756 C-371.731875 755.42378906 -371.46375 754.84757812 -371.1875 754.25390625 C-369.97137559 751.94567012 -368.59121696 750.002104 -367 747.9375 C-365.24878722 745.65654536 -363.59742149 743.39613223 -362 741 C-361.34 741 -360.68 741 -360 741 C-359.72542969 740.26910156 -359.45085937 739.53820313 -359.16796875 738.78515625 C-358.06309782 736.15046403 -356.81147824 733.86461272 -355.3125 731.4375 C-354.52359375 730.14005859 -354.52359375 730.14005859 -353.71875 728.81640625 C-352.86796875 727.42228516 -352.86796875 727.42228516 -352 726 C-348.02867599 719.46246026 -344.4222813 713.26684389 -342 706 C-341.52727938 704.70596032 -341.04792429 703.41432801 -340.5625 702.125 C-340.32982422 701.49940186 -340.09714844 700.87380371 -339.85742188 700.22924805 C-339.28099316 698.73056622 -338.67842194 697.24170487 -338.05151367 695.76342773 C-326.77803797 669.022012 -328.22365973 636.18909081 -338.50390625 609.3515625 C-340.52399526 604.82614118 -342.79773734 600.46225456 -345.23339844 596.14697266 C-347.27755636 592.51413765 -348.81209031 588.99625005 -350 585 C-350.66 585 -351.32 585 -352 585 C-353.08857866 583.44101062 -354.09433668 581.82399356 -355.0625 580.1875 C-360.47428779 571.44106289 -367.17301765 563.88105887 -374.02734375 556.25 C-377.5022693 552.28652056 -380.75860096 548.15512675 -384 544 C-384.60585938 543.22785156 -385.21171875 542.45570313 -385.8359375 541.66015625 C-386.38507813 540.94730469 -386.93421875 540.23445312 -387.5 539.5 C-387.9846875 538.8709375 -388.469375 538.241875 -388.96875 537.59375 C-390 536 -390 536 -390 534 C-390.66 534 -391.32 534 -392 534 C-393.63429751 531.9055032 -395.14167234 529.82217909 -396.625 527.625 C-397.25535156 526.72007812 -397.25535156 526.72007812 -397.8984375 525.796875 C-401 521.26537135 -401 521.26537135 -401 519 C-401.66 519 -402.32 519 -403 519 C-404.67155619 516.54978724 -406.22622103 514.10260045 -407.75 511.5625 C-408.65123922 510.08656457 -409.55357717 508.61129946 -410.45703125 507.13671875 C-410.89354004 506.42177246 -411.33004883 505.70682617 -411.77978516 504.97021484 C-413.27118594 502.56213074 -414.83957973 500.21351808 -416.4375 497.875 C-418.58838327 494.69073147 -420.33685354 491.47091434 -422 488 C-422.72132012 486.6831714 -423.4515149 485.37118874 -424.1875 484.0625 C-434.98111055 464.69941684 -434.98111055 464.69941684 -438.08203125 456.42578125 C-439.09687269 453.74400877 -440.23424193 451.13058092 -441.375 448.5 C-454.62534272 416.69917747 -461.45750686 380.91203186 -458.1875 346.5 C-458.09911865 345.55874268 -458.0107373 344.61748535 -457.91967773 343.64770508 C-457.29407278 337.30273981 -456.5217595 330.99066329 -455.5625 324.6875 C-455.45252686 323.94242188 -455.34255371 323.19734375 -455.22924805 322.4296875 C-454.48635422 317.83254662 -453.27625281 313.59132973 -451.73535156 309.19995117 C-451.03890737 307.11639916 -450.48629328 305.05083358 -449.98046875 302.9140625 C-449.03103391 298.96605289 -447.74595699 295.17163367 -446.3125 291.375 C-446.05557373 290.69058838 -445.79864746 290.00617676 -445.53393555 289.30102539 C-443.25964839 283.39360025 -440.54159227 277.79114105 -437.61328125 272.18359375 C-436.52253152 270.03114573 -435.51050157 267.83727359 -434.57421875 265.61328125 C-432.78347317 261.50300913 -430.70420083 257.64918034 -428.5 253.75 C-428.10941406 253.04359375 -427.71882812 252.3371875 -427.31640625 251.609375 C-426.93355469 250.92875 -426.55070313 250.248125 -426.15625 249.546875 C-425.81400391 248.93682617 -425.47175781 248.32677734 -425.11914062 247.69824219 C-423.92170612 245.88119279 -422.53568757 244.53467858 -421 243 C-420.00023075 241.29071708 -419.00276428 239.57970105 -418.04296875 237.84765625 C-413.85419735 230.42709867 -413.85419735 230.42709867 -411 229 C-409.86649466 226.98330173 -409.86649466 226.98330173 -409 225 C-408.34 225 -407.68 225 -407 225 C-406.77183594 224.28972656 -406.54367187 223.57945312 -406.30859375 222.84765625 C-404.72402572 219.399447 -402.66852024 217.18893693 -400.0625 214.4375 C-396.51221662 210.69253324 -396.51221662 210.69253324 -393.30859375 206.66015625 C-392.87675781 206.11230469 -392.44492187 205.56445312 -392 205 C-391.34 205 -390.68 205 -390 205 C-389.773125 204.46375 -389.54625 203.9275 -389.3125 203.375 C-386.19075413 197.72612652 -381.72338791 193.74116845 -376.86328125 189.61328125 C-374.85785564 187.92293366 -374.85785564 187.92293366 -372.625 185.5625 C-371 184 -371 184 -369 184 C-368.731875 183.360625 -368.46375 182.72125 -368.1875 182.0625 C-367 180 -367 180 -364 179 C-363.67 178.01 -363.34 177.02 -363 176 C-361.26773725 174.39187335 -359.4654991 172.85802684 -357.625 171.375 C-356.64789062 170.57835937 -355.67078125 169.78171875 -354.6640625 168.9609375 C-352 167 -352 167 -349 166 C-349 165.34 -349 164.68 -349 164 C-348.38125 163.731875 -347.7625 163.46375 -347.125 163.1875 C-344.7004767 162.04443152 -344.7004767 162.04443152 -343 159 C-342.01 158.67 -341.02 158.34 -340 158 C-338.6522223 156.68126923 -337.32148218 155.34508007 -336 154 C-334.02447364 152.4270945 -332.02260054 150.8868939 -330 149.375 C-328.96875 148.59898437 -327.9375 147.82296875 -326.875 147.0234375 C-324.59883592 145.42146332 -322.48664044 144.20141055 -320 143 C-319.401875 142.401875 -318.80375 141.80375 -318.1875 141.1875 C-314.00765255 137.00765255 -309.05302695 134.01716971 -304 131 C-302.92363281 130.32582031 -301.84726562 129.65164063 -300.73828125 128.95703125 C-300.17689453 128.60576172 -299.61550781 128.25449219 -299.03710938 127.89257812 C-297.87367667 127.1639504 -296.71225609 126.43210125 -295.55273438 125.69726562 C-291.22409845 123 -291.22409845 123 -289 123 C-289 122.34 -289 121.68 -289 121 C-287.375 119.80859375 -287.375 119.80859375 -285 118.4375 C-284.10023438 117.91414062 -283.20046875 117.39078125 -282.2734375 116.8515625 C-279.82333184 115.46570321 -277.37049798 114.08549365 -274.9140625 112.7109375 C-274.20636719 112.31463135 -273.49867188 111.9183252 -272.76953125 111.51000977 C-271.36010917 110.72298617 -269.94870032 109.93950809 -268.53515625 109.15991211 C-265.16427399 107.28687907 -262.06378208 105.35219398 -259 103 C-257.45502315 102.09441854 -255.89029679 101.22210597 -254.3125 100.375 C-253.35214844 99.85808594 -252.39179687 99.34117187 -251.40234375 98.80859375 C-246.65346126 96.28421649 -241.90007903 93.76837818 -237.14233398 91.26074219 C-233.35799759 89.26294582 -229.59827012 87.2352781 -225.875 85.125 C-222.98181222 83.49930401 -220.06677841 82.12819483 -216.9921875 80.8671875 C-212.2299377 78.79420818 -207.63263125 76.34463244 -203 74 C-190.45858124 67.65263158 -190.45858124 67.65263158 -184 65 C-182.04110612 64.18885239 -180.08283157 63.37620833 -178.125 62.5625 C-176.70574219 61.97662109 -176.70574219 61.97662109 -175.2578125 61.37890625 C-169.72351061 59.03644993 -164.24419033 56.57421342 -158.78125 54.0703125 C-150.58492422 50.33350116 -142.39606079 46.89508579 -133.83398438 44.07861328 C-130.45274152 42.94957365 -127.30174614 41.69773761 -124.13671875 40.05078125 C-119.56355162 37.69061674 -114.80866027 36.07100891 -109.9375 34.4375 C-103.12240139 32.13337721 -103.12240139 32.13337721 -96.44140625 29.47265625 C-92.36237756 27.72714681 -88.21857749 26.36309081 -84 25 C-82.56979632 24.52498884 -81.14009943 24.04844882 -79.7109375 23.5703125 C-77.47568444 22.82514305 -75.24036858 22.08016446 -73.00488281 21.33569336 C-69.42619454 20.14364553 -65.84848934 18.94902 -62.2734375 17.74609375 C-9.44513201 0 -9.44513201 0 0 0 Z " fill="#E76E00" transform="translate(1218,417)"/>
<path d="M0 0 C-0.29335091 3.12907636 -0.93363109 3.94465654 -3.3984375 6 C-4.38070312 6.66 -5.36296875 7.32 -6.375 8 C-9.96993757 10.42824279 -12.45935883 12.50856674 -15 16 C-15.66 16 -16.32 16 -17 16 C-17.28875 16.7425 -17.5775 17.485 -17.875 18.25 C-19 21 -19 21 -20.125 22.8125 C-21.46982433 26.17456081 -21.60488203 29.46917699 -21 33 C-19.10183458 35.7905817 -19.10183458 35.7905817 -17 38 C-17 38.99 -17 39.98 -17 41 C-16.4225 41.103125 -15.845 41.20625 -15.25 41.3125 C-13 42 -13 42 -11.15234375 43.39453125 C1.161038 52.57928606 19.00598828 55.32572511 33.82788086 57.64013672 C36.26859623 58.04449936 38.692069 58.51889374 41.12109375 58.98828125 C47.77241925 60.20715558 54.46049325 60.8512897 61.1875 61.5 C76.51150248 63.02168818 76.51150248 63.02168818 84.125 64.0625 C92.07541194 65.09656211 100.04961359 65.63329172 108.04663086 66.17993164 C113.91503838 66.59010826 119.76012236 67.05677467 125.60546875 67.72265625 C145.01594407 69.88866734 164.42846701 70.59982272 183.9375 71.1875 C184.642626 71.20898102 185.347752 71.23046204 186.07424545 71.25259399 C211.03267913 72.01048932 235.8522214 72.0354079 260.8125 71.25 C261.47393257 71.229375 262.13536514 71.20875 262.81684113 71.1875 C283.5147643 70.53650135 303.94540061 69.1634029 324.47509766 66.44189453 C329.65958619 65.79194826 334.85524863 65.35784106 340.0625 64.9375 C347.47360701 64.31632583 354.76224837 63.33959966 362.09521484 62.10522461 C367.44738364 61.21169126 372.78962432 60.54749303 378.1875 60 C384.50850722 59.34841321 390.67380886 58.40268555 396.91113281 57.17358398 C401.90498761 56.19155698 406.90840715 55.34372344 411.9375 54.5625 C412.71295166 54.44140869 413.48840332 54.32031738 414.28735352 54.19555664 C417.88228169 53.63586507 421.47784708 53.08037588 425.07373047 52.52685547 C441.16992702 50.07463746 441.16992702 50.07463746 457.078125 46.65625 C461.61594537 45.6370604 466.20039358 45.03841846 470.80859375 44.4296875 C474.00801428 44.04140372 474.00801428 44.04140372 477.15234375 43.3203125 C480.38204667 42.9570263 481.41827143 43.30166051 484.125 45 C484.89457031 45.46535156 485.66414062 45.93070313 486.45703125 46.41015625 C487.29621094 46.93480469 488.13539063 47.45945312 489 48 C490.93348159 49.15260106 492.87120878 50.29810162 494.8125 51.4375 C495.82183594 52.03046875 496.83117187 52.6234375 497.87109375 53.234375 C501.96189398 55.54279161 506.16038582 57.59361843 510.37890625 59.65625 C513.41888028 61.21474637 516.17023226 63.09155199 519 65 C520.62690323 65.71583742 522.25581673 66.42818922 523.90234375 67.09765625 C529.78844206 69.62966502 535.45830574 72.69930603 541.16015625 75.6171875 C546.02242106 78.0882753 550.80481463 80.44281099 555.95629883 82.24316406 C558.07177479 83.02658008 560.11421218 83.90767227 562.171875 84.83203125 C562.96102295 85.18555664 563.7501709 85.53908203 564.56323242 85.90332031 C565.36736572 86.26522461 566.17149902 86.62712891 567 87 C569.26587941 88.01716573 571.53201321 89.0337488 573.79882812 90.04882812 C575.3126546 90.72671936 576.82567255 91.40641896 578.33789062 92.08789062 C583.16731141 94.24589455 588.02968992 96.18902436 593 98 C592 101 592 101 590.015625 102.10546875 C589.10296875 102.46253906 588.1903125 102.81960938 587.25 103.1875 C586.17492188 103.61289063 585.09984375 104.03828125 583.9921875 104.4765625 C582.66201406 104.9858289 581.3312228 105.49348296 580 106 C579.18692383 106.31163086 578.37384766 106.62326172 577.53613281 106.94433594 C573.07775983 108.65253111 568.61531724 110.3493427 564.1484375 112.03515625 C559.81928245 113.6744069 555.52080045 115.38190084 551.23168945 117.12304688 C548.38180855 118.24292131 545.49765468 119.21512524 542.5859375 120.16015625 C539.36147059 121.20737738 536.15073582 122.29381688 532.9375 123.375 C525.76993624 125.7689645 518.56990189 128.05251517 511.34765625 130.27587891 C509.66728632 130.79417937 507.98768407 131.3149713 506.30859375 131.83740234 C495.02432108 135.34742526 483.7697851 138.71209034 472.27050781 141.44921875 C469.57867658 142.10220491 466.89498946 142.78449476 464.2109375 143.46875 C453.93979485 146.08354549 443.700112 148.63460339 433.27734375 150.57421875 C429.22822124 151.33125881 425.18352533 152.11147966 421.13818359 152.88842773 C418.84983927 153.32749088 416.56111921 153.76460172 414.27197266 154.19946289 C409.61593576 155.08798466 404.9732824 155.98766373 400.35546875 157.05859375 C395.50389624 158.15867241 390.61489954 158.8361842 385.6875 159.5 C380.08650918 160.27253371 374.50171227 161.05299292 368.9375 162.0625 C363.08976499 163.06873931 357.2160612 163.61396799 351.31167603 164.1651001 C345.76031906 164.69353435 340.23668547 165.33932277 334.70915222 166.07450867 C321.72343099 167.79067283 308.76326244 168.94759254 295.6875 169.6875 C294.59648987 169.75003967 293.50547974 169.81257935 292.38140869 169.87701416 C232.61282225 173.18032515 171.23463577 173.2704521 111.95556641 164.42578125 C107.83419845 163.8320537 103.70222543 163.38052662 99.5625 162.9375 C93.02176913 162.18866252 86.62177679 161.07686346 80.171875 159.78125 C76.75051693 159.10955372 73.3162703 158.59145427 69.8671875 158.08203125 C62.97714452 157.03703479 56.18401139 155.66473831 49.375 154.1875 C48.15731934 153.92469238 46.93963867 153.66188477 45.68505859 153.39111328 C35.70659712 151.209518 25.83706437 148.74360558 16 146 C14.79988281 145.67386719 13.59976563 145.34773438 12.36328125 145.01171875 C-1.67096589 141.12309611 -15.50083043 136.46394959 -29 131 C-30.06992187 130.57332031 -31.13984375 130.14664062 -32.2421875 129.70703125 C-45.88737554 124.08193641 -58.9882769 117.3226669 -71.1875 109 C-71.8769873 108.53118408 -72.56647461 108.06236816 -73.27685547 107.5793457 C-74.89292746 106.44333847 -76.45331869 105.22881163 -78 104 C-78 103.34 -78 102.68 -78 102 C-78.556875 101.938125 -79.11375 101.87625 -79.6875 101.8125 C-87.48532854 99.07272241 -93.3254697 88.06209557 -97.03125 81.078125 C-100.18049851 74.322479 -99.67551266 65.56179404 -98.3125 58.375 C-96.61120673 54.00024588 -94.39402004 50.02962915 -92 46 C-91.34 46 -90.68 46 -90 46 C-89.835 45.29875 -89.67 44.5975 -89.5 43.875 C-87.33892733 39.73294405 -83.95912841 37.4002216 -80 35 C-79.34 35 -78.68 35 -78 35 C-77.67 34.01 -77.34 33.02 -77 32 C-75.109375 30.46484375 -75.109375 30.46484375 -72.75 28.9375 C-71.98171875 28.43089844 -71.2134375 27.92429687 -70.421875 27.40234375 C-67.99691844 25.99821567 -65.59973943 25.03758146 -63 24 C-61.32466275 23.10379549 -59.65009718 22.20585088 -57.98876953 21.28393555 C-47.14326383 15.26733656 -35.84506256 10.67859086 -24 7 C-22.70306805 6.59393185 -21.4061992 6.18766214 -20.109375 5.78125 C-17.99299558 5.1186283 -15.87627081 4.4572716 -13.75805664 3.80053711 C-10.70327264 2.85278521 -7.66266764 1.88442155 -4.63671875 0.84765625 C-2 0 -2 0 0 0 Z " fill="#5281A0" transform="translate(487,1582)"/>
<path d="M0 0 C-0.33 0.66 -0.66 1.32 -1 2 C-3.685943 2.88826461 -6.32979521 3.66011638 -9.0625 4.375 C-9.87380371 4.59341553 -10.68510742 4.81183105 -11.52099609 5.03686523 C-20.04126816 7.31507942 -28.59938274 9.44200242 -37.16845703 11.52783203 C-38.63397024 11.88490318 -40.09914472 12.24336764 -41.56396484 12.60327148 C-42.93719624 12.94065887 -44.31117753 13.27501479 -45.68603516 13.60571289 C-49.26756522 14.48697119 -52.58634673 15.6213032 -56 17 C-59.00867035 17.80017828 -62.03174059 18.50744932 -65.0625 19.21875 C-67.96331911 19.92719504 -67.96331911 19.92719504 -70.5 21 C-74.25063459 22.50025384 -78.13683844 23.29742127 -82.0625 24.21875 C-84.94405367 24.91854061 -84.94405367 24.91854061 -87.375 25.96875 C-90.16761672 27.06584942 -92.98027416 27.76244621 -95.89355469 28.46386719 C-99.36111269 29.34643063 -102.73638133 30.48076096 -106.125 31.625 C-106.88490234 31.88007324 -107.64480469 32.13514648 -108.42773438 32.39794922 C-114.81387364 34.56053989 -121.16178037 36.82616945 -127.5 39.125 C-128.39477051 39.44936035 -129.28954102 39.7737207 -130.21142578 40.10791016 C-135.41682651 42.01105333 -140.57914403 44.00139527 -145.71777344 46.078125 C-148.0569968 47.0230231 -150.40274212 47.95026839 -152.75 48.875 C-161.94509669 52.56171329 -171.07658418 56.33910661 -179.81640625 61.01953125 C-182.19697963 62.08844703 -184.4314949 62.58019161 -187 63 C-187 63.66 -187 64.32 -187 65 C-187.90492188 65.48919922 -187.90492188 65.48919922 -188.828125 65.98828125 C-189.62734375 66.42527344 -190.4265625 66.86226562 -191.25 67.3125 C-192.43335938 67.95638672 -192.43335938 67.95638672 -193.640625 68.61328125 C-196.03172974 69.9534484 -196.03172974 69.9534484 -198.171875 71.66796875 C-200 73 -200 73 -202 73 C-202 73.66 -202 74.32 -202 75 C-203.36125 76.0828125 -203.36125 76.0828125 -204.75 77.1875 C-208.17412589 79.98536059 -210.67725494 82.71134831 -212 87 C-212.21317774 90.46283837 -212.15467045 93.710392 -211 97 C-209.17869957 98.21560484 -209.17869957 98.21560484 -207 99 C-205.72075845 99.79919627 -204.45000336 100.61211593 -203.1875 101.4375 C-199.57299314 103.70985542 -195.98987994 105.44462307 -192 107 C-191.30390625 107.29519531 -190.6078125 107.59039063 -189.890625 107.89453125 C-161.13411581 119.3879768 -126.35348782 122.0324643 -95.70117188 123.76269531 C-91.52896902 124.03020067 -87.36802559 124.38083798 -83.203125 124.7421875 C-27.8315261 129.46384347 28.02300387 128.27087318 83.55347443 128.01115417 C85.93308757 128.00030507 88.31270277 127.99054286 90.69232178 127.9810791 C129.16426139 127.8229719 167.49320041 126.68844489 205.90356445 124.45996094 C206.65666177 124.41631 207.40975908 124.37265905 208.18567753 124.32768536 C212.65408675 124.06855448 212.65408675 124.06855448 217.12238503 123.80751991 C227.12937462 123.22315869 237.12739408 122.8065316 247.1484375 122.52734375 C262.48201149 122.08560411 277.73693415 120.95387247 293.02294922 119.73010254 C296.52928624 119.45053223 300.03612978 119.17748714 303.54296875 118.90429688 C304.9383149 118.79557683 306.33365996 118.68684274 307.72900391 118.57809448 C308.41607422 118.52454678 309.10314453 118.47099907 309.81103516 118.4158287 C311.86970031 118.25493105 313.92826759 118.09282907 315.98681641 117.93045044 C325.03238917 117.21874238 334.08116474 116.5635827 343.1328125 115.93359375 C352.36233126 115.28725758 361.55483568 114.5333065 370.75 113.5 C379.59768451 112.54265265 388.43991985 111.68873577 397.3125 111 C406.31714826 110.29310703 415.25225196 109.27531007 424.20776367 108.10546875 C430.67196555 107.2676244 437.13255129 106.57640098 443.625 106 C451.75806334 105.27302227 459.82241913 104.25219195 467.90625 103.10546875 C473.80375309 102.27613238 479.69834395 101.58272714 485.625 101 C492.98845734 100.27175445 500.27621611 99.24831993 507.5859375 98.10546875 C513.08857745 97.25560704 518.5868839 96.57074035 524.125 96 C530.91180013 95.29688989 537.59864107 94.28060773 544.31860352 93.10546875 C549.38758477 92.2318678 554.44951426 91.55606665 559.5625 91 C565.99901861 90.2974013 572.32803817 89.28401585 578.69335938 88.10546875 C583.47012387 87.23376426 588.23957627 86.55758049 593.0625 86 C598.97741012 85.31173268 604.79317245 84.33121361 610.63549805 83.17797852 C617.21208499 81.9048587 623.82936613 80.97963551 630.4675293 80.09008789 C635.5826276 79.39313658 640.61852309 78.50859298 645.67431641 77.46606445 C648.85238102 76.82918377 652.04215856 76.33640185 655.25 75.875 C656.38953125 75.70742187 657.5290625 75.53984375 658.703125 75.3671875 C661.83563712 75.01830582 664.85151932 74.93321405 668 75 C668 75.66 668 76.32 668 77 C667.45690186 77.23871826 666.91380371 77.47743652 666.35424805 77.72338867 C642.1897072 88.39677244 618.34385594 100.16687152 595.58984375 113.6015625 C593 115 593 115 591 115 C591 115.66 591 116.32 591 117 C590.21625 117.350625 589.4325 117.70125 588.625 118.0625 C586.51870586 119.08402834 584.80990964 120.15163278 582.97265625 121.6171875 C575.85951475 127.28338226 568.95618924 128.83908388 560.2421875 130.54833984 C556.61991103 131.27800137 553.03115671 132.14214068 549.4375 133 C548.73786133 133.1637915 548.03822266 133.32758301 547.31738281 133.49633789 C543.10786169 134.48358239 538.91570468 135.5259778 534.72802734 136.60180664 C528.48628701 138.20219543 522.27937825 139.53128478 515.90625 140.5078125 C512.83619314 141.02774148 509.83999 141.71060265 506.8125 142.4375 C500.96590944 143.83055046 495.1000475 144.91788092 489.17504883 145.90991211 C485.68399574 146.50020298 482.23170596 147.15971584 478.78198242 147.95898438 C474.32537965 148.9568948 469.86182539 149.7190714 465.34765625 150.40234375 C463.67331816 150.66115534 461.99900271 150.92011341 460.32470703 151.17919922 C459.45517395 151.31283875 458.58564087 151.44647827 457.6897583 151.58416748 C454.04229719 152.14805939 450.39733769 152.72730006 446.75228882 153.30654907 C442.94526884 153.91076403 439.13733501 154.50910643 435.3293457 155.10717773 C433.39942588 155.41104438 431.46973775 155.71638619 429.5402832 156.02319336 C418.32108736 157.80601902 407.12439729 159.39406077 395.82641602 160.58178711 C391.27240962 161.07952289 386.76839521 161.75402897 382.25 162.5 C374.34584609 163.74425878 366.45630441 164.5661413 358.484375 165.23046875 C351.71112687 165.80751922 344.9885758 166.60931306 338.25 167.5 C328.88413865 168.72354341 319.53261019 169.56510669 310.11181641 170.23046875 C303.16655599 170.7297009 296.25025756 171.36717424 289.32641602 172.10546875 C275.67576773 173.56048146 262.06917541 174.54195713 248.36303711 175.23046875 C240.30139212 175.63823386 232.25194933 176.10475812 224.203125 176.71875 C168.63388468 180.92906668 112.97720649 181.19580316 57.28021532 181.24350959 C52.95364373 181.24725856 48.62708636 181.25340037 44.30052155 181.26189864 C13.10419717 181.32217753 -18.06820905 181.10312163 -49.25238013 180.17581844 C-51.31274875 180.11477832 -53.37316216 180.05549321 -55.43358803 179.99642181 C-78.01372242 179.33201929 -100.48963382 177.86017811 -122.9921875 175.90234375 C-130.12091907 175.28458161 -137.23395667 174.80885486 -144.3828125 174.5 C-153.32056393 174.10652929 -162.12852184 173.18892454 -171 172.0625 C-173.95924413 171.69729998 -176.91906347 171.33687423 -179.87890625 170.9765625 C-180.94595543 170.84570503 -180.94595543 170.84570503 -182.03456116 170.71220398 C-187.6614453 170.02685751 -193.29320609 169.45567786 -198.9375 168.9375 C-206.06397929 168.27060341 -213.09743725 167.27126028 -220.15795898 166.10083008 C-224.93038855 165.31160257 -229.69093429 164.66272254 -234.5 164.125 C-241.97138243 163.22510677 -249.34974134 161.92417171 -256.75 160.5625 C-258.43706055 160.2543335 -258.43706055 160.2543335 -260.15820312 159.93994141 C-266.63007643 158.72670268 -273.00572456 157.30169047 -279.3828125 155.6628418 C-282.44643628 154.88693335 -285.52569446 154.24165769 -288.625 153.625 C-311.21944419 148.82243642 -346.25721497 141.31542134 -360 121 C-362.36488468 114.87279879 -362.89918125 109.84396155 -360.5625 103.6875 C-356.6696697 95.53043864 -349.12166996 88.87580893 -341 85 C-340.34 85 -339.68 85 -339 85 C-339 84.34 -339 83.68 -339 83 C-332.55023826 79.70682753 -326.03495773 76.5844081 -319.44311523 73.58764648 C-316.32100795 72.15176873 -313.30653868 70.63633644 -310.3359375 68.90625 C-307.66157577 67.3780433 -305.17869781 66.14795362 -302.3125 65.0625 C-298.51750093 63.5940254 -294.75218757 62.07505178 -291 60.5 C-286.52979935 58.62981401 -282.04293539 56.81068865 -277.5390625 55.0234375 C-274.80423721 53.92109254 -272.0904773 52.77413729 -269.375 51.625 C-253.92815911 45.17402047 -238.0222178 39.21472937 -221.9296875 34.58203125 C-219.85951251 33.98974327 -219.85951251 33.98974327 -217.375 32.9375 C-214.76320049 31.90652651 -212.12492628 31.27484292 -209.3984375 30.62109375 C-206.6090925 29.89877151 -203.87436573 29.04970663 -201.125 28.1875 C-183.8534642 22.81635187 -166.35160602 18.1480934 -148.58984375 14.71875 C-145.16282964 14.03260136 -141.77314991 13.25338233 -138.375 12.4375 C-133.07683171 11.19201099 -127.79118709 10.30303112 -122.40625 9.52734375 C-118.80915873 8.97045462 -115.25705613 8.27419869 -111.6875 7.5625 C-101.79604123 5.63583075 -91.80044943 4.51259328 -81.79736328 3.33642578 C-79.37079627 3.04459393 -76.94909374 2.73129209 -74.52734375 2.40234375 C-49.86324563 -0.88915999 -24.82576593 -0.12678149 0 0 Z " fill="#5281A0" transform="translate(526,1126)"/>
<path d="M0 0 C-4.67654752 6.10549259 -4.67654752 6.10549259 -9 7 C-9.69937532 8.31647119 -10.36729133 9.65022151 -11 11 C-11.99 11.33 -12.98 11.66 -14 12 C-14.34342449 13.33076989 -14.67619874 14.66431979 -15 16 C-15.99 16.66 -16.98 17.32 -18 18 C-19.56011011 20.3043137 -19.56011011 20.3043137 -21 23 C-21.77730469 24.38445312 -21.77730469 24.38445312 -22.5703125 25.796875 C-27.80918464 35.61879273 -27.80918464 35.61879273 -27.328125 46.37890625 C-25.35203226 51.29484188 -22.86862778 54.45375787 -19 58 C-19 58.66 -19 59.32 -19 60 C-17.9790625 60.37125 -17.9790625 60.37125 -16.9375 60.75 C-14 62 -14 62 -11 63.8125 C17.96491563 80.31150257 58.20278598 79.38991319 90.73535156 81.87353516 C91.74618301 81.9509771 91.74618301 81.9509771 92.7774353 82.02998352 C94.21603921 82.14007938 95.65470168 82.24941201 97.09341431 82.358078 C102.18775998 82.752472 107.27352666 83.21081662 112.35986328 83.69799805 C133.21249514 85.67985035 154.02928294 86.85937389 174.9612999 87.59789276 C177.55527924 87.68945116 180.14917663 87.78312348 182.74307251 87.87701416 C247.71078701 90.21058545 313.64450461 90.44296761 378.2958374 82.66093445 C384.56043074 81.91046301 390.83424757 81.40716464 397.125 80.9375 C405.46377458 80.29268269 413.71052139 79.29876377 421.98779297 78.10522461 C428.06544146 77.23518323 434.13648103 76.56003512 440.25 76 C447.37440691 75.33967205 454.3741076 74.35121932 461.41845703 73.10546875 C466.4749169 72.22083959 471.52200666 71.55085486 476.625 71 C482.86609205 70.32069746 488.97716735 69.31878378 495.13476562 68.10327148 C499.45357566 67.26038302 503.75870977 66.60349868 508.125 66.0625 C515.25449281 65.16098352 522.29603302 63.91112448 529.35791016 62.58422852 C533.57823378 61.79415666 537.79806541 61.02540479 542.03833008 60.34985352 C549.93231631 59.08721091 557.73794071 57.66415136 565.53515625 55.89453125 C567.91326299 55.37415221 570.29224462 54.85800078 572.67163086 54.34350586 C574.28514091 53.98514945 575.89522367 53.61104938 577.50170898 53.22241211 C590.9621823 49.99400488 590.9621823 49.99400488 596.12060547 52.54052734 C598.46417939 54.56375334 600.30597072 56.41213152 602 59 C602 59.66 602 60.32 602 61 C602.804375 61.268125 603.60875 61.53625 604.4375 61.8125 C605.283125 62.204375 606.12875 62.59625 607 63 C607.33 63.99 607.66 64.98 608 66 C609.64646606 66.7151026 611.31777961 67.3736161 613 68 C614.80313186 69.11609914 616.57462886 70.28477751 618.3125 71.5 C619.19550781 72.1084375 620.07851562 72.716875 620.98828125 73.34375 C621.65214844 73.8903125 622.31601563 74.436875 623 75 C623 75.66 623 76.32 623 77 C624.09248047 77.14695312 624.09248047 77.14695312 625.20703125 77.296875 C628.36729286 78.09246533 630.10383414 79.28555984 632.6875 81.25 C637.58388747 84.79268035 642.52931705 87.4605783 648 90 C649.2163861 90.57370962 650.43251492 91.14796491 651.6484375 91.72265625 C664.57085039 97.98880199 664.57085039 97.98880199 678 103 C678 103.66 678 104.32 678 105 C673.5431694 106.58043638 669.1341971 108.03556392 664.5 109 C661.48925385 109.62810394 658.65056899 110.41594924 655.75 111.4375 C651.08286635 113.05242514 646.34736591 114.10896976 641.53125 115.18359375 C634.33396971 116.84756674 627.20815587 118.81627917 620.09765625 120.81640625 C613.82812359 122.57482143 607.52660036 123.98366475 601.15234375 125.3125 C598.85300235 125.81396727 596.57388796 126.41091364 594.3125 127.0625 C591.65169625 127.81555767 589.15697576 128.34756039 586.44140625 128.80859375 C581.36278639 129.71595373 576.32728139 130.76956255 571.2890625 131.875 C570.5083287 132.04603745 569.72759491 132.21707489 568.92320251 132.39329529 C565.67631176 133.10614485 562.42999965 133.82154069 559.18457031 134.54101562 C550.3715606 136.49158115 541.60866605 138.31613437 532.66845703 139.6015625 C529.44746614 140.08250094 526.29525155 140.7578546 523.125 141.5 C517.03397412 142.84906442 510.96517502 143.70245511 504.77734375 144.46875 C501.01516906 144.99786661 497.34121876 145.71349868 493.625 146.5 C487.60450891 147.75296381 481.64569283 148.57505584 475.54077148 149.23046875 C470.38215132 149.79802746 465.29691507 150.59544098 460.1875 151.5 C453.07667058 152.74578278 445.98640104 153.56575358 438.79840088 154.21618652 C433.90106087 154.67251146 429.05014194 155.2522405 424.18946838 156.00195312 C409.38048674 158.28116158 394.48091535 159.66974516 379.5625 161 C378.84255356 161.06452614 378.12260712 161.12905228 377.38084412 161.19553375 C294.23429011 168.617051 209.63096022 170.15465976 102.4375 161.0625 C100.66093521 160.88083282 100.66093521 160.88083282 98.84848022 160.69549561 C84.8472479 159.23600602 70.98526168 157.30414409 57.12011719 154.87109375 C52.6942908 154.09906859 48.27217139 153.47968197 43.8125 152.9375 C38.21324108 152.22826054 32.82752172 151.11568271 27.34765625 149.77734375 C23.74696455 148.94124381 20.13877807 148.27491293 16.5 147.625 C6.57181569 145.82562298 -3.21125379 143.43442545 -13 141 C-13.69512695 140.82855469 -14.39025391 140.65710937 -15.10644531 140.48046875 C-30.06002065 136.76285426 -44.74530394 131.84639608 -59 126 C-59.66966797 125.72994141 -60.33933594 125.45988281 -61.02929688 125.18164062 C-69.96459228 121.54490314 -78.36502542 117.45673212 -86.5 112.25 C-87.22413086 111.79028809 -87.94826172 111.33057617 -88.69433594 110.85693359 C-89.36239258 110.41430176 -90.03044922 109.97166992 -90.71875 109.515625 C-91.59950195 108.93216309 -91.59950195 108.93216309 -92.49804688 108.33691406 C-94.27589367 106.75442234 -94.96673943 105.12046648 -96 103 C-96.92619141 102.77376953 -96.92619141 102.77376953 -97.87109375 102.54296875 C-103.29711652 101.15908404 -107.2140616 93.31834828 -109.9375 88.75 C-113.04353253 80.71085698 -113.04767672 71.08703691 -110 63 C-107.9198774 59.45628598 -105.53530936 56.22924102 -103 53 C-102.505 52.35160156 -102.01 51.70320313 -101.5 51.03515625 C-100.39574789 49.63840878 -99.20626384 48.30965788 -98 47 C-97.34 47 -96.68 47 -96 47 C-96 46.34 -96 45.68 -96 45 C-94.19983318 43.49542707 -92.33238578 42.07088287 -90.4375 40.6875 C-89.88755371 40.28450684 -89.33760742 39.88151367 -88.77099609 39.46630859 C-87.18431773 38.30586017 -85.59227786 37.15275323 -84 36 C-83.29230469 35.47277344 -82.58460938 34.94554687 -81.85546875 34.40234375 C-78.37748409 31.83507291 -74.87548623 29.89417256 -71 28 C-68.35253542 26.69078384 -65.70767734 25.3763298 -63.0625 24.0625 C-62.38509766 23.72798828 -61.70769531 23.39347656 -61.00976562 23.04882812 C-57.7089536 21.40633394 -54.46464426 19.71761724 -51.27734375 17.86328125 C-48.68369533 16.38870402 -46.27458539 15.18054879 -43.5 14.125 C-40.5398072 12.98372085 -37.59066219 11.83167417 -34.65625 10.625 C-27.63175167 7.74315453 -20.5638839 5.07056698 -13.375 2.625 C-12.23804688 2.23078857 -12.23804688 2.23078857 -11.078125 1.82861328 C-7.26969319 0.55828287 -4.0724767 -0.33803166 0 0 Z " fill="#5281A0" transform="translate(439,1359)"/>
<path d="M0 0 C1.73138363 21.81543374 -11.54667345 40.49759638 -24.7890625 56.51953125 C-27.20317751 59.2279465 -29.73584613 61.53195142 -32.5703125 63.78515625 C-34.18919803 65.066648 -34.18919803 65.066648 -35.75 67.375 C-36.1625 67.91125 -36.575 68.4475 -37 69 C-37.99 69 -38.98 69 -40 69 C-40.34611328 69.88171875 -40.34611328 69.88171875 -40.69921875 70.78125 C-42.33107748 73.56472075 -44.12783462 74.72900635 -46.8125 76.5 C-49.53381536 78.32850559 -52.14309875 80.11647573 -54.6875 82.1875 C-57.60245583 84.47219511 -60.78265485 86.18676963 -64 88 C-65.0621875 88.61359375 -66.124375 89.2271875 -67.21875 89.859375 C-85.46193914 100.37092683 -103.94100966 109.325726 -123.5534668 117.03222656 C-125.1854892 117.67780453 -126.81458818 118.33082205 -128.44067383 118.99121094 C-134.66864771 121.51964869 -140.95941495 123.80625516 -147.3125 126 C-148.32650879 126.35102783 -149.34051758 126.70205566 -150.38525391 127.0637207 C-157.54750548 129.52972419 -164.73168443 131.8649323 -172 134 C-173.2375 134.37511719 -174.475 134.75023437 -175.75 135.13671875 C-193.76289355 140.56838583 -212.01991761 145.12554316 -230.34228516 149.38232422 C-232.15497645 149.80360926 -233.96713066 150.22721028 -235.77880859 150.65283203 C-246.56850819 153.18577412 -257.33335516 155.53741171 -268.2734375 157.32421875 C-270.90565269 157.80154918 -273.4122666 158.33515372 -275.9921875 159.00390625 C-279.87714499 160.00349785 -283.78368832 160.66586051 -287.75 161.25 C-294.25210172 162.23886965 -300.74267157 163.28470695 -307.2265625 164.38671875 C-325.06234479 167.41383959 -342.88903794 170.18801111 -360.82543945 172.56030273 C-364.13270648 173.01838071 -367.4287217 173.52938823 -370.7265625 174.05078125 C-375.95628879 174.86646625 -381.16664734 175.4728026 -386.4375 175.9375 C-393.55469021 176.60203436 -400.61353367 177.4766057 -407.6875 178.5 C-416.55680532 179.76760426 -425.41013516 180.57817059 -434.34399414 181.23046875 C-441.96481504 181.7995087 -449.53649634 182.60239922 -457.125 183.5 C-467.96226457 184.76119974 -478.78584519 185.58483904 -489.67602539 186.22827148 C-496.91173019 186.6600344 -504.13563342 187.15255161 -511.359375 187.75390625 C-512.1647319 187.82040375 -512.97008881 187.88690125 -513.79985046 187.95541382 C-516.95688742 188.21704835 -520.11381562 188.47885699 -523.2694397 188.75708008 C-534.90096737 189.78238002 -546.51494553 190.26048773 -558.18556213 190.61329651 C-567.12954087 190.88860764 -576.06357029 191.26026603 -585 191.71875 C-586.8549131 191.81391151 -586.8549131 191.81391151 -588.74729919 191.91099548 C-592.49830445 192.10538088 -596.24917321 192.30220249 -600 192.5 C-604.99983741 192.7636633 -609.99985606 193.02347142 -615 193.28125 C-616.06347656 193.338573 -617.12695312 193.395896 -618.22265625 193.45495605 C-643.02895931 194.7324444 -667.81211836 195.17100089 -692.6457448 195.20018864 C-695.09180812 195.20318971 -697.53786747 195.20730542 -699.98392868 195.21169281 C-707.77837993 195.22530115 -715.5728212 195.23498921 -723.36728346 195.2388947 C-731.23905119 195.24286934 -739.11069558 195.25488601 -746.98242188 195.28125 C-800.50330951 195.45660324 -853.98543177 194.73884858 -907.40892982 191.20972061 C-911.81772382 190.95224445 -916.22074539 190.84874148 -920.63549805 190.75976562 C-937.7461523 190.39224849 -954.74050445 188.97474201 -971.78320312 187.4597168 C-973.75517648 187.28528404 -975.72718133 187.11120692 -977.69921875 186.9375 C-978.66112122 186.85257294 -979.62302368 186.76764587 -980.61407471 186.68014526 C-986.7177379 186.15548271 -992.81415836 185.77500655 -998.93359375 185.49609375 C-1006.79184783 185.13178347 -1014.53835545 184.35148987 -1022.33633423 183.32955933 C-1025.89035231 182.86399322 -1029.44714489 182.42060442 -1033.00390625 181.9765625 C-1033.69951157 181.88932419 -1034.39511688 181.80208588 -1035.11180115 181.71220398 C-1040.83651814 181.00194905 -1046.56614111 180.43672668 -1052.3125 179.9375 C-1059.84537883 179.27457704 -1067.28481675 178.28282969 -1074.75390625 177.10522461 C-1080.09705554 176.26611694 -1085.43559931 175.5809539 -1090.8125 175 C-1097.42715448 174.27401072 -1103.86835459 173.09601383 -1110.3828125 171.71875 C-1113.9357201 171.01277268 -1117.4726515 170.47971249 -1121.0625 170 C-1126.91204319 169.20561759 -1132.61906107 168.06549642 -1138.37890625 166.78125 C-1142.17714711 165.96178056 -1145.98950542 165.25347018 -1149.8125 164.5625 C-1160.6158151 162.58015565 -1171.49739367 160.41058773 -1181.85546875 156.70703125 C-1184.41757198 155.86233055 -1187.00009428 155.24732864 -1189.625 154.625 C-1201.13928042 151.81235135 -1212.14468593 147.73260455 -1223 143 C-1224.23556641 142.49146484 -1224.23556641 142.49146484 -1225.49609375 141.97265625 C-1230.52899734 139.85934597 -1234.70359498 137.38227629 -1239 134 C-1239 133.67 -1239 133.34 -1239 133 C-1229.87295075 133.26152004 -1221.15026737 134.20548452 -1212.1875 135.9375 C-1204.47851707 137.42709758 -1196.85494074 138.54984745 -1189.03930664 139.28100586 C-1183.36275132 139.82261888 -1177.75630554 140.60697067 -1172.125 141.5 C-1164.4973188 142.69712322 -1156.88663344 143.55296482 -1149.1965332 144.23046875 C-1142.38060939 144.83982495 -1135.60164584 145.64560706 -1128.8125 146.5 C-1119.26475605 147.68603691 -1109.72760066 148.54859955 -1100.1315918 149.23046875 C-1093.06347453 149.74029673 -1086.01999633 150.38115113 -1078.97070312 151.10546875 C-1065.19290253 152.51893534 -1051.44456972 153.52561604 -1037.61231995 154.21330261 C-1029.44328216 154.62374654 -1021.28345192 155.0986781 -1013.12573242 155.69458008 C-984.24233293 157.79448945 -955.38504493 158.93696762 -926.4375 159.6875 C-924.05670084 159.75064039 -921.67590251 159.81381224 -919.29510498 159.87701416 C-817.90753725 162.53933761 -715.77363342 162.81639019 -614.62127686 154.62879944 C-607.66344397 154.08068843 -600.71267147 153.75421658 -593.73828125 153.50390625 C-583.82791661 153.1424841 -574.01365424 152.37144302 -564.15332031 151.32955933 C-559.74175932 150.86357861 -555.32787861 150.42058951 -550.9140625 149.9765625 C-550.05121643 149.88932419 -549.18837036 149.80208588 -548.29937744 149.71220398 C-541.2073801 149.00262089 -534.10989726 148.43677967 -527 147.9375 C-517.6867802 147.27570312 -508.45084516 146.27568804 -499.18847656 145.10522461 C-492.21769972 144.2336022 -485.25236068 143.55867381 -478.25 143 C-470.01174542 142.33644093 -461.87930477 141.34350272 -453.70874023 140.10546875 C-447.75416679 139.21422389 -441.80781609 138.54793091 -435.8125 138 C-428.6882068 137.34329335 -421.69502906 136.35548237 -414.65209961 135.10546875 C-409.40661837 134.18949011 -404.17194639 133.53605461 -398.875 133 C-392.46814247 132.34714232 -386.21367113 131.36676877 -379.90014648 130.10546875 C-375.25653076 129.1923108 -370.63465362 128.53707764 -365.9375 128 C-359.42388473 127.25087076 -353.06411212 126.06375516 -346.6484375 124.71875 C-343.10564399 124.02081209 -339.57792372 123.48241668 -336 123 C-329.82379204 122.16443635 -323.76183214 120.98073054 -317.66015625 119.71875 C-314.23848549 119.04683173 -310.82564537 118.49828814 -307.375 118 C-301.96915408 117.20327971 -296.71803164 116.04837721 -291.40625 114.77734375 C-287.84596241 113.96484693 -284.2796819 113.28183491 -280.6875 112.625 C-261.30807796 109.06648392 -242.12608074 104.72265758 -223 100 C-222.23220215 99.81050781 -221.4644043 99.62101562 -220.67333984 99.42578125 C-216.80442239 98.46822643 -212.93938838 97.49599914 -209.07519531 96.51953125 C-206.68499885 95.92113854 -204.2918779 95.33527998 -201.8984375 94.75 C-200.57066284 94.42334351 -200.57066284 94.42334351 -199.21606445 94.09008789 C-197.50696152 93.66977028 -195.79720864 93.2520823 -194.08666992 92.83764648 C-189.31925436 91.66024888 -184.68189867 90.28851349 -180.04760742 88.66210938 C-177.96270351 87.9879399 -175.89563352 87.50176561 -173.75 87.0625 C-164.86560106 85.18965632 -156.30513317 82.1569145 -147.80859375 79 C-143.66198748 77.52360055 -139.45329006 76.27038098 -135.2421875 74.9921875 C-125.32631075 71.95769028 -115.6209668 68.42666783 -105.93554688 64.73486328 C-104.14216984 64.0539772 -102.34468473 63.38393809 -100.546875 62.71484375 C-94.04431515 60.27245714 -87.73907246 57.56407286 -81.45703125 54.6015625 C-78.30772858 53.14256352 -75.1388817 51.75624052 -71.94897461 50.38989258 C-64.73482958 47.29447661 -57.79321929 43.95473799 -51 40 C-49.81083984 39.31164063 -49.81083984 39.31164063 -48.59765625 38.609375 C-42.94110932 35.27228735 -37.41811499 31.73215077 -31.90893555 28.15893555 C-29.37012472 26.5134033 -26.828141 24.89910525 -24.21875 23.3671875 C-21.86818389 22.03665591 -21.86818389 22.03665591 -19.8125 19.8125 C-19.214375 19.214375 -18.61625 18.61625 -18 18 C-17.34 18 -16.68 18 -16 18 C-15.773125 17.443125 -15.54625 16.88625 -15.3125 16.3125 C-13.04399551 12.31561114 -10.38100054 9.46033351 -6 8 C-5.30341637 6.34561387 -4.63903117 4.67745682 -4 3 C-1.4137931 0 -1.4137931 0 0 0 Z " fill="#5281A0" transform="translate(1511,1853)"/>
<path d="M0 0 C1.13324707 -0.01266907 2.26649414 -0.02533813 3.43408203 -0.03839111 C23.26052663 -0.2169207 42.85712742 1.55294214 61.50770569 8.69882202 C63.8200758 9.58024077 66.14415929 10.36878144 68.5 11.125 C77.49773861 14.11359169 85.71536624 17.89963577 93.9375 22.625 C94.7728125 23.099375 95.608125 23.57375 96.46875 24.0625 C106.45239312 29.87576055 116.4423366 36.77480562 124.9375 44.625 C124.9375 45.285 124.9375 45.945 124.9375 46.625 C125.576875 46.893125 126.21625 47.16125 126.875 47.4375 C128.9375 48.625 128.9375 48.625 129.9375 51.625 C130.81148437 52.04265625 130.81148437 52.04265625 131.703125 52.46875 C134.83490424 54.08939101 136.48641264 56.39162355 138.6875 59.125 C139.48671875 60.1046875 140.2859375 61.084375 141.109375 62.09375 C142.9375 64.625 142.9375 64.625 142.9375 66.625 C143.5975 66.625 144.2575 66.625 144.9375 66.625 C146.00170251 68.2514227 146.99196247 69.92684319 147.9375 71.625 C148.62779297 72.74068359 148.62779297 72.74068359 149.33203125 73.87890625 C159.83548426 90.97956941 165.55990582 107.98231591 168.9375 127.625 C169.1334375 128.76324219 169.329375 129.90148438 169.53125 131.07421875 C171.08804163 144.68117632 170.2917727 158.33220315 167.36083984 171.67871094 C166.93724656 173.6261652 166.55649612 175.58277378 166.17578125 177.5390625 C164.96404339 183.62980837 163.57632398 189.01749903 160.9375 194.625 C160.44128433 196.05670421 159.96335856 197.49482686 159.5 198.9375 C156.56763883 207.88697865 152.89005731 215.85774139 147.9375 223.875 C147.41671875 224.73351563 146.8959375 225.59203125 146.359375 226.4765625 C136.97002291 241.88837781 125.85222991 256.95166692 112.9375 269.625 C112.14730469 270.42679688 111.35710937 271.22859375 110.54296875 272.0546875 C105.51176152 277.14279045 100.39536948 282.00097169 94.9375 286.625 C93.9475 287.4809375 92.9575 288.336875 91.9375 289.21875 C72.88416247 305.625 72.88416247 305.625 68.9375 305.625 C68.9375 306.285 68.9375 306.945 68.9375 307.625 C66.92578125 309.24609375 66.92578125 309.24609375 64.25 311.0625 C63.37988281 311.65933594 62.50976562 312.25617188 61.61328125 312.87109375 C59.90279621 313.992273 58.17091024 315.08186851 56.4140625 316.12890625 C53.84534897 317.68066852 51.43453849 319.37120924 49 321.125 C45.41239719 323.6558715 41.90126079 325.72569795 37.9375 327.625 C36.32594335 328.57085339 34.72254806 329.5306736 33.125 330.5 C25.38482132 335.178508 17.48943083 339.3835431 9.38232422 343.39086914 C3.47642416 346.32185905 -2.34337209 349.40200757 -8.12695312 352.56738281 C-12.03746913 354.67554467 -15.92239912 356.38991801 -20.10253906 357.88989258 C-23.30383049 359.09057625 -26.35827061 360.58189776 -29.4375 362.0625 C-35.23720343 364.80686177 -41.06537971 367.33772622 -47.0625 369.625 C-48.08988281 370.02460937 -49.11726563 370.42421875 -50.17578125 370.8359375 C-56.04655403 373.11250039 -61.93428003 375.32998229 -67.859375 377.4609375 C-70.41693817 378.39039338 -72.96730432 379.33477505 -75.515625 380.2890625 C-83.55870512 383.29440043 -91.58100168 386.21576228 -99.81640625 388.66015625 C-102.92243749 389.58336891 -106.0114835 390.54954025 -109.10058594 391.52734375 C-115.24201623 393.47007041 -121.39759901 395.29579259 -127.625 396.9453125 C-129.95147039 397.59403982 -132.21831855 398.33456036 -134.5 399.125 C-141.84974501 401.63660351 -149.393793 403.42072897 -157.0625 404.625 C-156.5675 402.645 -156.5675 402.645 -156.0625 400.625 C-155.4025 400.625 -154.7425 400.625 -154.0625 400.625 C-153.7221875 399.5421875 -153.7221875 399.5421875 -153.375 398.4375 C-150.77422647 392.86441387 -146.7270807 390.22717217 -141.359375 387.71484375 C-134.99854586 384.69669523 -128.88645409 381.15673705 -122.875 377.5 C-120.06507636 375.79381788 -117.27108384 374.18218071 -114.3125 372.75 C-105.01640796 368.22402387 -96.13068232 362.78941411 -87.46484375 357.16796875 C-80.39161392 352.625 -80.39161392 352.625 -78.0625 352.625 C-78.0625 351.965 -78.0625 351.305 -78.0625 350.625 C-76.4125 350.295 -74.7625 349.965 -73.0625 349.625 C-73.0625 348.965 -73.0625 348.305 -73.0625 347.625 C-70.9453125 346.1875 -70.9453125 346.1875 -68.1875 344.625 C-64.37366621 342.45755811 -64.37366621 342.45755811 -61.0625 339.625 C-60.0725 339.625 -59.0825 339.625 -58.0625 339.625 C-58.0625 338.965 -58.0625 338.305 -58.0625 337.625 C-56.375 336.328125 -56.375 336.328125 -54.0625 334.875 C-51.06290167 332.94202903 -48.14387701 330.98443236 -45.3125 328.8125 C-41.1646709 325.64506687 -36.86569178 322.70410144 -32.54199219 319.78393555 C-29.78580062 317.903245 -27.39312973 315.99756908 -25.0625 313.625 C-22.9070597 311.9205005 -20.74156726 310.23611503 -18.5625 308.5625 C-12.95824775 304.21365844 -7.6660012 299.67066852 -2.46484375 294.84375 C0.06395064 292.50821307 2.65621726 290.27203306 5.3046875 288.07421875 C7.6161684 286.02264121 9.76217238 283.81986649 11.9375 281.625 C12.73929688 280.83480469 13.54109375 280.04460937 14.3671875 279.23046875 C18.69263934 274.95338458 22.92666256 270.65641768 26.87890625 266.03125 C28.62079032 263.99519575 30.38133658 261.97938497 32.15234375 259.96875 C33.33079467 258.62505745 34.50917942 257.28130686 35.6875 255.9375 C36.25509033 255.29530518 36.82268066 254.65311035 37.4074707 253.99145508 C39.76992245 251.28492622 41.85519734 248.76283875 43.703125 245.66796875 C44.11046875 244.99378906 44.5178125 244.31960938 44.9375 243.625 C45.5975 243.625 46.2575 243.625 46.9375 243.625 C47.33388672 242.52865234 47.33388672 242.52865234 47.73828125 241.41015625 C48.9400469 238.61908488 50.32259573 236.50007649 52.125 234.0625 C62.21475078 219.87443808 69.82643869 203.90005448 75.9375 187.625 C76.2564624 186.86405029 76.5754248 186.10310059 76.90405273 185.3190918 C84.69874004 164.99913564 85.74197212 140.51025014 79.9375 119.625 C79.74414062 118.65304687 79.55078125 117.68109375 79.3515625 116.6796875 C76.00788974 100.39556691 65.81956504 83.16237127 54.40625 71.33203125 C52.9375 69.625 52.9375 69.625 52.9375 67.625 C52.298125 67.356875 51.65875 67.08875 51 66.8125 C48.9375 65.625 48.9375 65.625 47.9375 62.625 C46.61944562 61.92861299 45.28216613 61.26850231 43.9375 60.625 C42.09765141 59.17999224 40.28723015 57.69710216 38.5 56.1875 C35.75689695 53.87169534 33.19325272 51.77410138 30.08984375 49.96484375 C29.02443359 49.30162109 29.02443359 49.30162109 27.9375 48.625 C27.9375 47.965 27.9375 47.305 27.9375 46.625 C27.256875 46.53734375 26.57625 46.4496875 25.875 46.359375 C22.20836121 45.4427153 19.19629295 43.72195793 15.9375 41.875 C-11.84292961 26.75660486 -44.60304227 22.67018088 -75.0625 31.625 C-76.65222814 31.95230195 -78.244986 32.26509099 -79.83984375 32.56640625 C-85.28716682 33.61679157 -90.55866582 35.11441624 -95.875 36.6875 C-97.69347072 37.22189203 -99.51246549 37.75450471 -101.33203125 38.28515625 C-102.12198486 38.51855713 -102.91193848 38.75195801 -103.72583008 38.99243164 C-106.15602698 39.65031903 -108.58916699 40.15794575 -111.0625 40.625 C-109.69562778 36.63828937 -107.91054907 33.74005367 -105.0625 30.625 C-104.4025 30.625 -103.7425 30.625 -103.0625 30.625 C-102.71445313 29.74328125 -102.71445313 29.74328125 -102.359375 28.84375 C-100.7407258 26.07449475 -98.97355204 24.89903469 -96.3125 23.125 C-95.40628906 22.51914063 -94.50007813 21.91328125 -93.56640625 21.2890625 C-92.74011719 20.73992187 -91.91382813 20.19078125 -91.0625 19.625 C-90.134375 18.92375 -89.20625 18.2225 -88.25 17.5 C-80.40539507 12.88552651 -71.64726685 10.30277051 -62.81640625 8.30078125 C-60.04951407 7.66461278 -60.04951407 7.66461278 -57.37109375 6.70703125 C-38.5700027 0.55838636 -19.60274252 0.08522639 0 0 Z " fill="#5281A0" transform="translate(1341.0625,1106.375)"/>
</svg>
